G04 ================== begin FILE IDENTIFICATION RECORD ==================*
G04 Layout Name:  c:/cadence_2026/allegro/kit_stm32.brd*
G04 Film Name:    INT1*
G04 File Format:  Gerber RS274X*
G04 File Origin:  Cadence Allegro 25.1-S010*
G04 Origin Date:  Mon May 11 21:21:42 2026*
G04 *
G04 Layer:  ETCH/INT1*
G04 Layer:  PIN/INT1*
G04 Layer:  VIA CLASS/INT1*
G04 *
G04 Offset:    (0.0000 0.0000)*
G04 Mirror:    No*
G04 Mode:      Positive*
G04 Rotation:  0*
G04 FullContactRelief:  No*
G04 UndefLineWidth:     0.0000*
G04 ================== end FILE IDENTIFICATION RECORD ====================*
%FSLAX25Y25*MOMM*%
%IR0*IPPOS*OFA0.00000B0.00000*MIA0B0*SFA1.00000B1.00000*%
%ADD11C,.6096*%
%ADD14C,2.*%
%ADD13C,1.5001*%
%ADD12C,1.6*%
%ADD18C,1.8*%
%ADD19C,1.308*%
%ADD10C,1.65*%
%ADD16R,1.6X1.6*%
%ADD15C,1.725*%
%ADD17C,4.9949*%
%ADD20C,.15*%
%ADD21C,.127*%
%ADD23C,.864*%
%ADD31C,2.0544*%
%ADD24C,2.2544*%
%ADD28C,1.5624*%
%ADD25C,1.9044*%
%ADD30C,1.0568*%
%ADD22C,1.8544*%
%ADD26C,1.7546*%
%ADD27C,5.2494*%
%ADD29C,1.9794*%
G75*
%LPD*%
G75*
G36*
G01X-7889780Y4889840D02*
X7889480D01*
Y-4889650D01*
X-7889780D01*
Y4889840D01*
G37*
%LPC*%
G75*
G36*
G01X-6829820Y-197000D02*
Y-37000D01*
G02X-6817100Y-24280I12720J0D01*
G01X-6657100D01*
G02X-6644380Y-37000I0J-12720D01*
G01Y-197000D01*
G02X-6657100Y-209720I-12720J0D01*
G01X-6817100D01*
G02X-6829820Y-197000I0J12720D01*
G37*
G36*
G01X-5457430Y-4031230D02*
Y-3871230D01*
G02X-5444710Y-3858510I12720J0D01*
G01X-5284710D01*
G02X-5271990Y-3871230I0J-12720D01*
G01Y-4031230D01*
G02X-5284710Y-4043950I-12720J0D01*
G01X-5444710D01*
G02X-5457430Y-4031230I0J12720D01*
G37*
G36*
G01X-6676200Y-4746210D02*
Y-4586210D01*
G02X-6663480Y-4573490I12720J0D01*
G01X-6503480D01*
G02X-6490760Y-4586210I0J-12720D01*
G01Y-4746210D01*
G02X-6503480Y-4758930I-12720J0D01*
G01X-6663480D01*
G02X-6676200Y-4746210I0J12720D01*
G37*
G36*
G01X-1069090Y-2718990D02*
G02X-1026100Y-2680050I42990J-4261D01*
G02Y-2766450I0J-43200D01*
G02X-1052150Y-2757720I-9J43203D01*
G03X-1068380Y-2764820I-6122J-8105D01*
G02X-1111370Y-2803760I-42990J4261D01*
G02Y-2717360I0J43200D01*
G02X-1085320Y-2726090I9J-43203D01*
G03X-1069090Y-2718990I6122J8105D01*
G37*
G36*
G01X1117550Y76980D02*
G02X1116610Y85940I42260J8963D01*
G02X1159810Y42740I43200J0D01*
G02X1147910Y44410I-5J43201D01*
G03X1135170Y32540I-2801J-9766D01*
G02X1136110Y23580I-42260J-8963D01*
G02X1092910Y66780I-43200J0D01*
G02X1104810Y65110I5J-43201D01*
G03X1117550Y76980I2801J9766D01*
G37*
G36*
G01X207650Y137360D02*
G02X165380Y103090I-42270J8934D01*
G02Y189490I0J43200D01*
G02X189960Y181810I-7J-43198D01*
G03X205680Y188070I5779J8357D01*
G02X247950Y222340I42270J-8934D01*
G02Y135940I0J-43200D01*
G02X223370Y143620I7J43198D01*
G03X207650Y137360I-5779J-8357D01*
G37*
G36*
G01X201630Y325230D02*
G02X194090Y349620I35662J24385D01*
G02X237290Y306420I43200J0D01*
G02X236300Y306430I-59J43201D01*
G03X227680Y290540I-235J-10155D01*
G02X235220Y266150I-35662J-24385D01*
G02X192020Y309350I-43200J0D01*
G02X193010Y309340I59J-43201D01*
G03X201630Y325230I235J10155D01*
G37*
G36*
G01X369510Y381670D02*
G02X327850Y349920I-41660J11457D01*
G02Y436320I0J43200D01*
G02X358800Y423260I0J-43203D01*
G03X375870Y427660I7275J7089D01*
G02X417530Y459410I41660J-11457D01*
G02Y373010I0J-43200D01*
G02X386580Y386070I0J43203D01*
G03X369510Y381670I-7275J-7089D01*
G37*
G36*
G01X-321880Y396420D02*
G02X-327230Y396090I-5330J42871D01*
G02X-284030Y439290I0J43200D01*
G02X-285660Y427530I-43201J-5D01*
G03X-274630Y414680I9774J-2770D01*
G02X-269280Y415010I5330J-42871D01*
G02X-226080Y371810I0J-43200D01*
G02X-229120Y355890I-43205J0D01*
G03X-218750Y342030I9446J-3742D01*
G02X-214820Y342210I3939J-43020D01*
G02X-172190Y305980I0J-43195D01*
G03X-160990Y297520I10029J1634D01*
G02X-156010Y297810I4997J-42909D01*
G02X-113440Y261980I0J-43204D01*
G03X-102170Y253630I10009J1729D01*
G02X-96820Y253960I5330J-42871D01*
G02Y167560I0J-43200D01*
G02X-139390Y203390I0J43204D01*
G03X-150660Y211740I-10009J-1729D01*
G02X-156010Y211410I-5330J42871D01*
G02X-198640Y247640I0J43195D01*
G03X-209840Y256100I-10029J-1634D01*
G02X-214820Y255810I-4997J42909D01*
G02X-258020Y299010I0J43200D01*
G02X-254980Y314930I43205J0D01*
G03X-265350Y328790I-9446J3742D01*
G02X-269280Y328610I-3939J43020D01*
G02X-312480Y371810I0J43200D01*
G02X-310850Y383570I43201J5D01*
G03X-321880Y396420I-9774J2770D01*
G37*
G36*
G01X-343580Y796240D02*
G02X-300500Y836160I43080J-3285D01*
G02Y749760I0J-43200D01*
G02X-318740Y753800I0J43195D01*
G03X-333150Y745360I-4281J-9212D01*
G02X-376230Y705440I-43080J3285D01*
G02Y791840I0J43200D01*
G02X-357990Y787800I0J-43195D01*
G03X-343580Y796240I4281J9212D01*
G37*
G36*
G01X-4075890Y3269200D02*
G02X-4087240Y3267680I-11358J41679D01*
G02X-4044040Y3310880I0J43200D01*
G02X-4044150Y3307800I-43200J1D01*
G03X-4031350Y3297270I10135J-725D01*
G02X-4020000Y3298790I11358J-41679D01*
G02X-4063200Y3255590I0J-43200D01*
G02X-4063090Y3258670I43200J-1D01*
G03X-4075890Y3269200I-10135J725D01*
G37*
G54D23*
X-3059570Y-4652410D03*
X-1653020Y-4681190D03*
X4770830Y-4679660D03*
X5173330Y-4688850D03*
X5557470Y-4572140D03*
X-3551510Y-4440160D03*
X5998550Y-4428790D03*
X-3433690Y-4397000D03*
X-5177440Y-4281130D03*
X2287360Y-4202440D03*
X-5275990Y-4140540D03*
X-2401270Y-3875390D03*
X-5117370Y-3834850D03*
X-13920Y-3815310D03*
X316360Y-3859700D03*
X4249450Y-3847110D03*
X6571020Y-3803850D03*
X-4375340Y-3772010D03*
X-3735870Y-3758470D03*
X5012440Y-3775490D03*
X-5109150Y-3701030D03*
X-1123800Y-3721230D03*
X1470590Y-3696330D03*
X5690150Y-3710630D03*
X-3522900Y-3570820D03*
X-3094850Y-3627120D03*
X-4613100Y-3514950D03*
X-3916620Y-3504860D03*
X-3559590Y-3474290D03*
X-2942120Y-3449520D03*
X-3660700Y-3404520D03*
X-3155220Y-3371410D03*
X-5115560Y-3291110D03*
X-3477610Y-3305060D03*
X-3375210Y-3282450D03*
X-2705840Y-3330560D03*
X-1139790Y-3337680D03*
X-5004770Y-3211000D03*
X2253500Y-3173180D03*
X3179000Y-3172760D03*
X-5122370Y-3093400D03*
X3819360Y-3064980D03*
X6125410Y-3061420D03*
X-5023520Y-2994540D03*
X4498170Y-3014760D03*
X6801690Y-3025390D03*
X-1801230Y-2954120D03*
X-135830Y-2896750D03*
X-5115560Y-2887160D03*
X-4700440Y-2872720D03*
X-3512860Y-2817530D03*
X-3315240Y-2830930D03*
X-3201180Y-2823140D03*
X1090220Y-2862060D03*
X-4322490Y-2785160D03*
X-2802750Y-2800520D03*
X1196610Y-2760860D03*
X-3737310Y-2739400D03*
X3616380Y-2677850D03*
X-4814800Y-2640820D03*
X7005380Y-2656470D03*
X6344060Y-2544670D03*
X1653220Y-2459480D03*
X2519780Y-2463380D03*
X-6694540Y-2433820D03*
X-6207030Y-2434650D03*
X-5246740Y-2393300D03*
X-4903080Y-2410620D03*
X-1516320Y-2418480D03*
X5023130Y-2397200D03*
X-5535870Y-2339400D03*
X-4903080Y-2288680D03*
X-4246300Y-2358800D03*
X5702400Y-2326770D03*
X996530Y-2271110D03*
X-6606780Y-2211340D03*
X-6011290Y-2171820D03*
X-5908370Y-2163100D03*
X-5300030Y-2198460D03*
X1166560Y-2207100D03*
X-6192330Y-2131390D03*
X-4314190Y-2107360D03*
X-2206880Y-2098790D03*
X-1881510Y-2128600D03*
X-100660Y-2072460D03*
X1309190Y-2126660D03*
X3152020Y-2084450D03*
X-6193240Y-2011010D03*
X-5099220Y-2040730D03*
X-4778550Y-1987160D03*
X4809860Y-2003280D03*
X6853510Y-2026810D03*
X-5919510Y-1949850D03*
X-4856480Y-1911220D03*
X-4311490Y-1970660D03*
X151010Y-1979940D03*
X1544670Y-1962890D03*
X1955780D03*
X3079920Y-1947940D03*
X3358470D03*
X6963880Y-1930680D03*
X15220Y-1899510D03*
X2382340Y-1859390D03*
X2948460Y-1867630D03*
X3603550Y-1877660D03*
X-6992880Y-1796750D03*
X-6507680Y-1773130D03*
X-5363110Y-1822510D03*
X-4854680Y-1812300D03*
X-4315990Y-1829460D03*
X-1561880Y-1813390D03*
X-163140Y-1824760D03*
X2475790Y-1792650D03*
X3227130Y-1789090D03*
X3369590Y-1810810D03*
X3736690Y-1797400D03*
X7165930Y-1827520D03*
X-4854680Y-1710750D03*
X-4316880Y-1691410D03*
X-2211140Y-1741320D03*
X-1752040Y-1740400D03*
X1980120Y-1750750D03*
X2969490Y-1742100D03*
X3989040Y-1695220D03*
X4569430Y-1712700D03*
X-7065880Y-1660090D03*
X-5375340Y-1680410D03*
X1207650Y-1675230D03*
X1972780Y-1647670D03*
X-4316800Y-1549400D03*
X-15910Y-1570860D03*
X2322050Y-1572860D03*
X2656000Y-1575180D03*
X-4780860Y-1494100D03*
X1372420Y-1518220D03*
X1836950Y-1489200D03*
X2889920Y-1513790D03*
X-24880Y-1454980D03*
X2015580Y-1422980D03*
X2779230Y-1408280D03*
X-4872680Y-1375370D03*
X-327230Y-1347090D03*
X49820Y-1356390D03*
X-4241500Y-1279070D03*
X-1037870Y-1263740D03*
X84410Y-1242230D03*
X1877230Y-1279320D03*
X2006070Y-1252860D03*
X4138180Y-1284620D03*
X5766400Y-1256070D03*
X6018880Y-1270770D03*
X6274400Y-1246170D03*
X6528400Y-1262230D03*
X-1760940Y-1207980D03*
X-1621150Y-1191960D03*
X-1149360Y-1162980D03*
X-4312580Y-1083710D03*
X-1362160Y-1144190D03*
X-1002060Y-1142600D03*
X861030Y-1131530D03*
X983150Y-1148190D03*
X1713990Y-1134410D03*
X2604210Y-1111800D03*
X-4233080Y-1015030D03*
X-1823570Y-1058690D03*
X-1731490Y-1008450D03*
X-1615910Y-1074350D03*
X-1084610Y-1038880D03*
X520290Y-1079650D03*
X2320280Y-1076190D03*
X2403060Y-1014770D03*
X-378640Y-931860D03*
X-269920Y-981400D03*
X1368760Y-1001430D03*
X1447090Y-935560D03*
X1885020Y-936490D03*
X2001620Y-992530D03*
X3125170Y-937800D03*
X-7116800Y-918410D03*
X-4952790Y-885350D03*
X-464110Y-864430D03*
X301210Y-875640D03*
X520290Y-929170D03*
X1742110Y-904590D03*
X2787880Y-875550D03*
X2970920Y-892840D03*
X3417470Y-882460D03*
X3570850Y-883930D03*
X5692830Y-862570D03*
X-2061500Y-803250D03*
X-1334220Y-822800D03*
X1427510Y-820740D03*
X3930450Y-802040D03*
X-5180560Y-773170D03*
X-4221620Y-723810D03*
X-1413870Y-748480D03*
X-449730Y-763720D03*
X305650Y-746890D03*
X592940Y-773490D03*
X710980Y-754880D03*
X1317230Y-745540D03*
X1781210Y-742360D03*
X2349650Y-743300D03*
X2523250Y-765650D03*
X-4910810Y-670370D03*
X791090Y-666760D03*
X2520640Y-654140D03*
X855180Y-556380D03*
X1876660Y-565860D03*
X-1761000Y-507460D03*
X2050610Y-527450D03*
X-6921980Y-448370D03*
X-1673770Y-420220D03*
X-1553770Y-448570D03*
X-1138810Y-415500D03*
X-1016310Y-411840D03*
X-899270Y-430090D03*
X-782300Y-457560D03*
X552480Y-462780D03*
X929060Y-465590D03*
X1895410Y-463480D03*
X2039960Y-415500D03*
X2445400Y-414600D03*
X-4348510Y-370440D03*
X302100Y-398860D03*
X1237120Y-389470D03*
X-2362870Y-286900D03*
X359810Y-278990D03*
X3426110Y-315130D03*
X3976730Y-321400D03*
X4801200Y-273620D03*
X-4161600Y-204600D03*
X-2461290Y-204280D03*
X-1071390Y-236000D03*
X2022140Y-219890D03*
X2327380Y-219600D03*
X2943540Y-194060D03*
X3062890Y-242490D03*
X-1138980Y-114290D03*
X980690Y-125000D03*
X1400580Y-152200D03*
X3480590Y-143030D03*
X-4093370Y-78320D03*
X-437820Y-70170D03*
X2588970Y-28010D03*
X2853600D03*
X-3556960Y7850D03*
X-1902150Y-18160D03*
X970010Y-10550D03*
X1324920Y43300D03*
X1907480Y22160D03*
X2344750Y16840D03*
X-4474590Y123200D03*
X-2534660Y82750D03*
X831270Y53980D03*
X-5209730Y146330D03*
X-4694860Y187080D03*
X-1816700Y159000D03*
X-742380Y160810D03*
X-383330Y194240D03*
X23010Y134750D03*
X718550Y175000D03*
X861500Y176510D03*
X1883430Y146680D03*
X1978580Y187590D03*
X2097750Y185060D03*
X-5198160Y252860D03*
X-4531390Y206700D03*
X91670Y241300D03*
X-4777340Y337910D03*
X-3182020Y317800D03*
X-386880Y302560D03*
X-15740Y277700D03*
X2787880Y290250D03*
X2375350Y390570D03*
X-5511700Y465190D03*
X-5266560Y485460D03*
X-2381070Y434340D03*
X-1138980Y477530D03*
X770750Y435520D03*
X1846740Y428060D03*
X1999290Y502260D03*
X-4419300Y537200D03*
X709530Y573800D03*
X2336430Y508180D03*
X-7229320Y647600D03*
X-907090Y631600D03*
X-788710Y598230D03*
X-3351770Y691690D03*
X-2664680Y694550D03*
X-708260Y698780D03*
X-602780Y725350D03*
X2550800Y695550D03*
X-3806890Y782030D03*
X-3108300Y796870D03*
X2782230Y782320D03*
X-3893920Y853030D03*
X4815200Y848190D03*
X-7224930Y900300D03*
X-3237870Y920930D03*
X1909200Y900240D03*
X2054400Y903920D03*
X7531760Y901590D03*
X-6500680Y998690D03*
X1710560Y1001290D03*
X-1026100Y1059050D03*
X-534220Y1058370D03*
X-1486730Y1240820D03*
X-500150Y1255360D03*
X4737210Y1221240D03*
X5361610Y1255400D03*
X5510240Y1222700D03*
X6783180Y1317260D03*
X-6452730Y1481680D03*
X-570190Y1434290D03*
X7125000Y1453000D03*
X-2649140Y1629020D03*
X-2432500Y1611260D03*
X-2265580Y1630790D03*
X1379730Y1613010D03*
X-7275720Y1662600D03*
X-6587440Y1653000D03*
X-2091560Y1637900D03*
X-2540820Y1721350D03*
X-2334840Y1756870D03*
X-7448680Y1917600D03*
X-5406580Y1993830D03*
X-4352860Y2010940D03*
X-1938610Y1962570D03*
X-3807990Y2236120D03*
X-7760800Y2271510D03*
X-5382140Y2407010D03*
X-5164000Y2423510D03*
X-7757900Y2537910D03*
X2283890Y2535390D03*
X-4811740Y2591810D03*
X-4393620Y2571840D03*
X-6112760Y2642420D03*
X-5277290Y2653780D03*
X-4947130Y2617440D03*
X-4225530Y2830980D03*
X2283890Y2789800D03*
X-5248550Y2856090D03*
X-3647730Y2864180D03*
X-2050730Y2886230D03*
X-3966490Y2964200D03*
X-1956610Y2960810D03*
X-7755800Y3024090D03*
X-2072040Y3026520D03*
X-6956350Y3102670D03*
X-4251730Y3091400D03*
X-6914770Y3252900D03*
X-4273930Y3253810D03*
X-5192820Y3354190D03*
X-3390520Y3306650D03*
X-7435650Y3370340D03*
X-6060680Y3393890D03*
X-3383390Y3443280D03*
X-6139290Y3505110D03*
X-5103150Y3461630D03*
X-4394660Y3504230D03*
X-4267790Y3489170D03*
X-4046130Y3519800D03*
X-4474180Y3560780D03*
X-1934860Y3566980D03*
X-6920430Y3627640D03*
X-5411960Y3623500D03*
X-4143150Y3610630D03*
X-7632710Y3740350D03*
X-7169540Y3738250D03*
X-6565500Y3741240D03*
X-6384440Y3714880D03*
X-4651230Y3801660D03*
X6463650Y3983090D03*
X-4225100Y4062090D03*
X-1420890Y4063130D03*
X-6034900Y4138210D03*
X-2192690Y4341120D03*
X6216280Y4316210D03*
X-2087180Y4420680D03*
X-2192690Y4485110D03*
X-1988580Y4494190D03*
X-5704220Y4645600D03*
X-6034900Y4791560D03*
G54D31*
X-352330Y4463530D03*
X-98690D03*
X154940D03*
X409510D03*
G54D24*
X-6995220Y-4476080D03*
X-5665080Y-4475760D03*
X-6995250Y-2926240D03*
X-5665380Y-2926140D03*
G54D28*
X3660200Y-545600D03*
X4167200D03*
X4421200D03*
X4675200Y-544600D03*
X5438200Y-545600D03*
X3660200Y480400D03*
X4168200D03*
X4422200D03*
X4929200D03*
X5184200D03*
X5438200D03*
X5692200D03*
X5945200D03*
X6200200D03*
G54D25*
X7612300Y-4429200D03*
Y-4175200D03*
Y-3921200D03*
Y-3667200D03*
Y-3413200D03*
Y-3159200D03*
Y-2905200D03*
Y-2651200D03*
X3226400Y-1483900D03*
X3480400D03*
X3734400D03*
X3988400D03*
X4242400D03*
X4496400D03*
X4750400D03*
X5004400D03*
X5258400D03*
X5512400D03*
X5766400D03*
X6020400D03*
X6274400D03*
X6528400D03*
X-7687000Y647600D03*
Y901600D03*
Y1155600D03*
Y1409600D03*
Y1663600D03*
Y1917600D03*
G54D30*
X-7385500Y4115200D03*
X-6807500D03*
G54D22*
X-6329950Y-4665920D03*
X-6075810Y-4666230D03*
X-7605170Y-4026030D03*
X-7154860Y-4025840D03*
X-5365000Y-3701030D03*
X-5365010Y-3450850D03*
X-7604740Y-3375870D03*
X-7154990Y-3376170D03*
X-6737100Y-1517000D03*
X-5377100D03*
X-6737100Y-1317000D03*
X-5377100D03*
X-6737100Y-1117000D03*
X-5377100D03*
X-6737100Y-917000D03*
X-5377100D03*
X-6737100Y-717000D03*
X-5377100D03*
X-6737100Y-517000D03*
X-5377100D03*
X-6737100Y-317000D03*
X-5377100D03*
Y-117000D03*
G54D26*
X1881200Y-2962800D03*
X2805600Y-2964200D03*
X-353500Y-2650100D03*
X21500D03*
X396500D03*
X1881200Y-2712800D03*
X2805600Y-2714200D03*
X1881200Y-2462800D03*
X2805600Y-2464200D03*
X-7470300Y-2138900D03*
Y-1888900D03*
Y-1638900D03*
X7535000Y-1605900D03*
Y-1355900D03*
Y-1105900D03*
X-7477100Y-696100D03*
Y-446100D03*
Y-196100D03*
X7531900Y-111300D03*
Y138700D03*
Y388700D03*
X2085400Y3033600D03*
X2460400D03*
X2835400D03*
X3672200Y4602800D03*
X3926200D03*
X4180200D03*
X4434200D03*
X4688200D03*
X4942200D03*
X5196200D03*
X5450200D03*
X5704200D03*
X5958200D03*
X6212200D03*
X6466200D03*
X6720200D03*
X6974200D03*
X7228200D03*
X7482200D03*
G54D27*
X-498500Y-1650100D03*
X541500D03*
X1940400Y4033600D03*
X2980400D03*
G54D29*
X-6787100Y891000D03*
Y1145000D03*
Y1399000D03*
Y1653000D03*
%LPD*%
G75*
G54D10*
X-7687000Y647600D03*
Y901600D03*
Y1155600D03*
Y1409600D03*
Y1663600D03*
Y1917600D03*
X3226400Y-1483900D03*
X3480400D03*
X3734400D03*
X3988400D03*
X4242400D03*
X4496400D03*
X4750400D03*
X5004400D03*
X5258400D03*
X5512400D03*
X5766400D03*
X6020400D03*
X6274400D03*
X6528400D03*
X7612300Y-4429200D03*
Y-4175200D03*
Y-3921200D03*
Y-3667200D03*
Y-3413200D03*
Y-3159200D03*
Y-2905200D03*
Y-2651200D03*
G54D20*
G01X-7459390Y1409600D02*
X-7463530D01*
G01X-6995220Y-4476080D02*
X-5785600D01*
G01X-6995250Y-2926240D02*
X-6875050D01*
G01D02*
X-6874950Y-2926140D01*
G01D02*
X-5665380D01*
G01X-5785280Y-4475760D02*
X-5885340D01*
G01X-5785280D02*
X-5665080D01*
G01X-5785600Y-4476080D02*
X-5785280Y-4475760D01*
G01X-5665380Y-3150480D02*
Y-2926140D01*
G54D11*
X-7760800Y2271510D03*
X-7757900Y2537910D03*
X-7755800Y3024090D03*
X-7715320Y-4426540D03*
X-7715330Y-2966390D03*
X-7632710Y3740350D03*
X-7547580Y3179330D03*
X-7463530Y1409600D03*
X-7448680Y1917600D03*
X-7435650Y3370340D03*
X-7491310Y3754230D03*
X-7358410Y-4432590D03*
X-7380700Y2153060D03*
X-7405540Y2707900D03*
X-7303220Y-2964710D03*
X-7275720Y1662600D03*
X-7316750Y4456300D03*
X-7229320Y647600D03*
X-7224930Y900300D03*
X-7259290Y1155100D03*
X-7254300Y2154990D03*
X-7192150Y4297520D03*
X-7116800Y-918410D03*
X-7119880Y2348880D03*
X-7169540Y3738250D03*
X-7089860Y-2138900D03*
X-7065880Y-1660090D03*
X-7095820Y-196100D03*
X-7073060Y4458510D03*
X-6992880Y-1796750D03*
X-7020510Y1145000D03*
X-6921980Y-448370D03*
X-6956350Y3102670D03*
X-6914770Y3252900D03*
X-6920430Y3627640D03*
X-6940730Y4296410D03*
X-6867500Y2585640D03*
X-6855820Y4464020D03*
X-6794690Y3457130D03*
X-6757900Y3753570D03*
X-6694540Y-2433820D03*
X-6730610Y-2084380D03*
X-6728700Y2596920D03*
X-6606780Y-2211340D03*
X-6587440Y1653000D03*
X-6565500Y3741240D03*
X-6507680Y-1773130D03*
X-6507900Y-317000D03*
X-6500680Y998690D03*
X-6452730Y1481680D03*
X-6384440Y3714880D03*
X-6349200Y-2450300D03*
X-6238800Y3663210D03*
X-6207030Y-2434650D03*
X-6192330Y-2131390D03*
X-6193240Y-2011010D03*
X-6139290Y3505110D03*
X-6112760Y2642420D03*
X-6060680Y3393890D03*
X-6011290Y-2171820D03*
X-6010090Y2416520D03*
X-6041160Y2974030D03*
X-6042990Y3065930D03*
X-6034900Y4138210D03*
Y4791560D03*
X-5908370Y-2163100D03*
X-5919510Y-1949850D03*
X-5742800Y483200D03*
X-5704220Y4645600D03*
X-5663400Y-4794810D03*
X-5623540Y-117000D03*
X-5622400Y2363120D03*
X-5679660Y4375600D03*
X-5535870Y-2339400D03*
X-5574400Y-1517000D03*
X-5485100Y-2173670D03*
X-5511700Y465190D03*
X-5522350Y2405840D03*
X-5474470Y3226710D03*
X-5406580Y1993830D03*
X-5382140Y2407010D03*
X-5440450Y2914980D03*
X-5411960Y3623500D03*
X-5363110Y-1822510D03*
X-5375340Y-1680410D03*
X-5275990Y-4140540D03*
X-5246740Y-2393300D03*
X-5300030Y-2198460D03*
X-5266560Y485460D03*
X-5277290Y2653780D03*
X-5248550Y2856090D03*
X-5177440Y-4281130D03*
X-5180560Y-773170D03*
X-5209730Y146330D03*
X-5198160Y252860D03*
X-5164000Y2423510D03*
X-5192820Y3354190D03*
X-5117370Y-3834850D03*
X-5109150Y-3701030D03*
X-5115560Y-3291110D03*
X-5122370Y-3093400D03*
X-5115560Y-2887160D03*
X-5078450Y-2574260D03*
X-5099220Y-2040730D03*
X-5103150Y3461630D03*
X-5024050Y-3562030D03*
X-5004770Y-3211000D03*
X-5023520Y-2994540D03*
X-4952790Y-885350D03*
X-4947130Y2617440D03*
X-4966800Y3498470D03*
X-4905100Y-2916510D03*
X-4903080Y-2410620D03*
Y-2288680D03*
X-4856480Y-1911220D03*
X-4854680Y-1812300D03*
Y-1710750D03*
X-4872680Y-1375370D03*
X-4910810Y-670370D03*
X-4814800Y-2640820D03*
X-4803850Y-2240080D03*
X-4778550Y-1987160D03*
X-4780860Y-1494100D03*
X-4777340Y337910D03*
X-4811740Y2591810D03*
X-4700440Y-2872720D03*
X-4741800Y3051300D03*
X-4761330Y3808760D03*
X-4670080Y-3661330D03*
X-4628920Y-1057160D03*
X-4655040Y-308710D03*
X-4694860Y187080D03*
X-4647380Y1486150D03*
X-4659200Y2361600D03*
X-4666800Y2582620D03*
X-4651230Y3801660D03*
X-4613100Y-3514950D03*
X-4490400Y-3321850D03*
X-4474590Y123200D03*
X-4531390Y206700D03*
X-4516800Y2581730D03*
X-4474180Y3560780D03*
X-4459390Y-2959400D03*
X-4461140Y-2672660D03*
X-4419300Y537200D03*
X-4375340Y-3772010D03*
X-4348510Y-370440D03*
X-4352860Y2010940D03*
X-4393620Y2571840D03*
X-4394660Y3504230D03*
X-4322490Y-2785160D03*
X-4315990Y-2508800D03*
X-4314190Y-2107360D03*
X-4311490Y-1970660D03*
X-4315990Y-1829460D03*
X-4316880Y-1691410D03*
X-4316800Y-1549400D03*
X-4312580Y-1083710D03*
X-4262400Y-120600D03*
X-4319300Y72080D03*
X-4298000Y521640D03*
X-4254680Y2548450D03*
X-4251730Y3091400D03*
X-4273930Y3253810D03*
X-4267790Y3489170D03*
X-4246300Y-2358800D03*
X-4241500Y-1279070D03*
X-4233080Y-1015030D03*
X-4221620Y-723810D03*
X-4225530Y2830980D03*
X-4187810Y3410950D03*
X-4225100Y4062090D03*
X-4105460Y-4110510D03*
X-4116400Y-3284920D03*
X-4161500Y-2746480D03*
X-4161600Y-204600D03*
X-4143150Y3610630D03*
X-4093370Y-78320D03*
X-4044390Y2705830D03*
X-4087240Y3310880D03*
X-4046130Y3519800D03*
X-3966490Y2964200D03*
X-4020000Y3255590D03*
X-3881250Y-3755180D03*
X-3916620Y-3504860D03*
X-3893920Y853030D03*
X-3934770Y1771080D03*
X-3872620Y2990010D03*
X-3806880Y-1983170D03*
X-3814900Y78700D03*
X-3806890Y782030D03*
X-3807990Y2236120D03*
X-3735870Y-3758470D03*
X-3737310Y-2739400D03*
X-3789830Y-1404030D03*
X-3745060Y-190600D03*
X-3660700Y-3404520D03*
X-3662090Y-2082100D03*
X-3651330Y-1511950D03*
X-3658530Y-1278130D03*
X-3656900Y1118770D03*
X-3647730Y2864180D03*
X-3639550Y-285730D03*
X-3573830Y-181950D03*
X-3582660Y2118600D03*
X-3551510Y-4440160D03*
X-3522900Y-3570820D03*
X-3559590Y-3474290D03*
X-3512860Y-2817530D03*
X-3503810Y-1981370D03*
X-3521830Y-1396840D03*
X-3556960Y7850D03*
X-3551720Y1893100D03*
X-3433690Y-4397000D03*
X-3477610Y-3305060D03*
X-3463130Y-301300D03*
X-3465900Y1168300D03*
X-3375210Y-3282450D03*
X-3415700Y-1761970D03*
X-3351770Y691690D03*
X-3407550Y812500D03*
X-3390520Y3306650D03*
X-3383390Y3443280D03*
X-3296130Y-3765710D03*
X-3317960Y-3635090D03*
X-3315240Y-2830930D03*
X-3268210Y-1891470D03*
X-3282510Y595750D03*
X-3338420Y2723840D03*
X-3201180Y-2823140D03*
X-3261030Y-1657640D03*
X-3249950Y189130D03*
X-3237870Y920930D03*
X-3155220Y-3371410D03*
X-3182020Y317800D03*
X-3059570Y-4652410D03*
X-3094850Y-3627120D03*
X-3106340Y-1758370D03*
X-3105090Y-284000D03*
X-3115690Y46100D03*
X-3071000Y474360D03*
X-3108300Y796870D03*
X-3030200Y-4329530D03*
X-3033870Y-4193530D03*
X-2985820Y-1997590D03*
X-2996620Y-1375250D03*
X-2942120Y-3449520D03*
X-2961500Y-3108220D03*
X-2941560Y4169250D03*
X-2868130Y-3580730D03*
X-2874310Y-2076730D03*
X-2876110Y-1502960D03*
X-2877910Y-1256540D03*
X-2858400Y1578700D03*
X-2873780Y2654540D03*
X-2802750Y-2800520D03*
X-2757390Y-1990400D03*
X-2744800Y-1366260D03*
X-2689970Y-3611000D03*
X-2705840Y-3330560D03*
X-2664680Y694550D03*
X-2660310Y-3765710D03*
X-2661500Y-743910D03*
X-2649140Y1629020D03*
X-2534660Y82750D03*
X-2540820Y1721350D03*
X-2517180Y3553690D03*
X-2461290Y-204280D03*
X-2465670Y2046620D03*
X-2491410Y2957850D03*
X-2495850Y3673390D03*
X-2494800Y4596530D03*
X-2401270Y-3875390D03*
X-2362190Y-3115460D03*
X-2362870Y-286900D03*
X-2381070Y434340D03*
X-2432500Y1611260D03*
X-2419440Y2183430D03*
X-2294570Y-4341940D03*
X-2292280Y-4197670D03*
X-2344900Y-3580740D03*
X-2334840Y1756870D03*
X-2271390Y-3342040D03*
X-2268160Y-2359120D03*
X-2211140Y-1741320D03*
X-2265580Y1630790D03*
X-2206880Y-2098790D03*
X-2192690Y4341120D03*
Y4485110D03*
X-2061500Y-803250D03*
X-2067240Y580100D03*
X-2091560Y1637900D03*
X-2072040Y3026520D03*
X-2087180Y4420680D03*
X-2048260Y-2958060D03*
X-2050730Y2886230D03*
X-1988580Y4494190D03*
X-1938610Y1962570D03*
X-1956610Y2960810D03*
X-1934860Y3566980D03*
X-1881510Y-2128600D03*
X-1902150Y-18160D03*
X-1903750Y4030410D03*
X-1801230Y-2954120D03*
X-1781120Y-1459400D03*
X-1760940Y-1207980D03*
X-1823570Y-1058690D03*
X-1761000Y-507460D03*
X-1799630Y-209550D03*
X-1816700Y159000D03*
X-1771320Y3667950D03*
X-1752040Y-1740400D03*
X-1699780Y-1559400D03*
X-1731490Y-1008450D03*
X-1714250Y800100D03*
X-1653020Y-4681190D03*
X-1621150Y-1191960D03*
X-1615910Y-1074350D03*
X-1673770Y-420220D03*
X-1604900Y-4360790D03*
X-1603980Y-4223860D03*
X-1561880Y-1813390D03*
X-1582050Y-1533520D03*
X-1553770Y-448570D03*
X-1516320Y-2418480D03*
X-1517810Y-676600D03*
X-1486730Y1240820D03*
X-1413870Y-748480D03*
X-1420890Y4063130D03*
X-1362160Y-1144190D03*
X-1334220Y-822800D03*
X-1314930Y-570870D03*
X-1328230Y1120240D03*
X-1123800Y-3721230D03*
X-1139790Y-3337680D03*
X-1111370Y-2760560D03*
X-1149360Y-1162980D03*
X-1084610Y-1038880D03*
X-1138810Y-415500D03*
X-1138980Y-114290D03*
Y477530D03*
X-1026100Y-2723250D03*
X-1037870Y-1263740D03*
X-1016310Y-411840D03*
X-1071390Y-236000D03*
X-1026100Y1059050D03*
X-1002060Y-1142600D03*
X-937390Y-131790D03*
X-899270Y-430090D03*
X-902050Y132910D03*
X-907090Y631600D03*
X-782300Y-457560D03*
X-806370Y-127890D03*
X-788710Y598230D03*
X-742380Y160810D03*
X-708260Y698780D03*
X-602780Y725350D03*
X-570190Y1434290D03*
X-534220Y1058370D03*
X-500150Y1255360D03*
X-544540Y4463530D03*
X-471110Y-4681700D03*
X-464110Y-864430D03*
X-449730Y-763720D03*
X-437820Y-70170D03*
X-327230Y-1347090D03*
X-378640Y-931860D03*
X-383330Y194240D03*
X-386880Y302560D03*
X-327230Y439290D03*
X-376230Y748640D03*
X-269920Y-981400D03*
X-269280Y371810D03*
X-300500Y792960D03*
X-274770Y1693700D03*
X-214820Y299010D03*
X-135830Y-2896750D03*
X-100660Y-2072460D03*
X-163140Y-1824760D03*
X-156010Y254610D03*
X-24880Y-1454980D03*
X-96820Y210760D03*
X-13920Y-3815310D03*
X15220Y-1899510D03*
X-15910Y-1570860D03*
X49820Y-1356390D03*
X23010Y134750D03*
X-15740Y277700D03*
X84410Y-1242230D03*
X91670Y241300D03*
X151010Y-1979940D03*
X165380Y146290D03*
X192020Y266150D03*
X247950Y179140D03*
X237290Y349620D03*
X316360Y-3859700D03*
X301210Y-875640D03*
X305650Y-746890D03*
X302100Y-398860D03*
X327850Y393120D03*
X359810Y-278990D03*
X417530Y416210D03*
X405230Y1689260D03*
X520290Y-1079650D03*
Y-929170D03*
X552480Y-462780D03*
X618030Y-2881290D03*
X592940Y-773490D03*
X710980Y-754880D03*
X718550Y175000D03*
X709530Y573800D03*
X791090Y-666760D03*
X770750Y435520D03*
X861030Y-1131530D03*
X855180Y-556380D03*
X831270Y53980D03*
X861500Y176510D03*
X854790Y1208460D03*
X929060Y-465590D03*
X933510Y282980D03*
X996530Y-2271110D03*
X983150Y-1148190D03*
X980690Y-125000D03*
X970010Y-10550D03*
X1090220Y-2862060D03*
X1092910Y23580D03*
X1166560Y-2207100D03*
X1159810Y85940D03*
X1196610Y-2760860D03*
X1207650Y-1675230D03*
X1237120Y-389470D03*
X1309190Y-2126660D03*
X1317230Y-745540D03*
X1324920Y43300D03*
X1390510Y-1842900D03*
X1372420Y-1518220D03*
X1393990Y-1279770D03*
X1368760Y-1001430D03*
X1400580Y-152200D03*
X1396800Y145830D03*
X1410210Y1405700D03*
X1379730Y1613010D03*
X1470590Y-3696330D03*
X1447090Y-935560D03*
X1427510Y-820740D03*
X1411580Y776280D03*
X1544670Y-1962890D03*
X1584840Y-476090D03*
X1653220Y-2459480D03*
X1710560Y1001290D03*
X1713990Y-1134410D03*
X1742110Y-904590D03*
X1781210Y-742360D03*
X1836950Y-1489200D03*
X1846740Y428060D03*
X1898730Y-4330200D03*
X1877230Y-1279320D03*
X1885020Y-936490D03*
X1876660Y-565860D03*
X1895410Y-463480D03*
X1907480Y22160D03*
X1883430Y146680D03*
X1909200Y900240D03*
X1955780Y-1962890D03*
X1980120Y-1750750D03*
X1972780Y-1647670D03*
X2006070Y-1252860D03*
X2001620Y-992530D03*
X1978580Y187590D03*
X1999290Y502260D03*
X2050420Y-2712800D03*
X2015580Y-1422980D03*
X2050610Y-527450D03*
X2039960Y-415500D03*
X2022140Y-219890D03*
X2054400Y903920D03*
X2097750Y185060D03*
X2307840Y-4330200D03*
X2287360Y-4202440D03*
X2253500Y-3173180D03*
X2283890Y2535390D03*
Y2789800D03*
X2382340Y-1859390D03*
X2322050Y-1572860D03*
X2320280Y-1076190D03*
X2349650Y-743300D03*
X2327380Y-219600D03*
X2344750Y16840D03*
X2375350Y390570D03*
X2336430Y508180D03*
X2403060Y-1014770D03*
X2445400Y-414600D03*
X2466460Y486560D03*
X2519780Y-2463380D03*
X2475790Y-1792650D03*
X2507390Y-1575640D03*
X2528270Y-865390D03*
X2523250Y-765650D03*
X2520640Y-654140D03*
X2541320Y-141430D03*
X2604210Y-1111800D03*
X2588970Y-28010D03*
X2550800Y695550D03*
X2656000Y-1575180D03*
X2779230Y-1408280D03*
X2787880Y-875550D03*
Y290250D03*
X2782230Y782320D03*
X2889920Y-1513790D03*
X2853600Y-28010D03*
X2983100Y-4796490D03*
X2983660Y-2714200D03*
X2948460Y-1867630D03*
X2969490Y-1742100D03*
X2970920Y-892840D03*
X2943540Y-194060D03*
X3062890Y-242490D03*
X3053020Y2795710D03*
X3079920Y-1947940D03*
X3125170Y-937800D03*
X3179000Y-3172760D03*
X3152020Y-2084450D03*
X3227130Y-1789090D03*
X3358470Y-1947940D03*
X3369590Y-1810810D03*
X3381700Y-4787430D03*
X3417470Y-882460D03*
X3426110Y-315130D03*
X3480590Y-143030D03*
X3570850Y-883930D03*
X3616380Y-2677850D03*
X3603550Y-1877660D03*
X3601680Y-1163540D03*
X3672200Y4365430D03*
X3736690Y-1797400D03*
X3780300Y-4795610D03*
X3819360Y-3064980D03*
X3887680Y971580D03*
X3930450Y-802040D03*
X3989040Y-1695220D03*
X3976730Y-321400D03*
X4182500Y-4792490D03*
X4138180Y-1284620D03*
X4143060Y-1164400D03*
X4249450Y-3847110D03*
X4294140Y-3407500D03*
X4498170Y-3014760D03*
X4576220Y-4774380D03*
X4569430Y-1712700D03*
X4708450Y-3786790D03*
X4688200Y4387990D03*
X4770830Y-4679660D03*
X4801200Y-273620D03*
X4737210Y1221240D03*
X4809860Y-2003280D03*
X4815200Y848190D03*
X4955150Y-929170D03*
X4993210Y-4769650D03*
X5012440Y-3775490D03*
X5023130Y-2397200D03*
X5173330Y-4688850D03*
X5389950Y-4765920D03*
X5371570Y982250D03*
X5361610Y1255400D03*
X5557470Y-4572140D03*
X5510240Y1222700D03*
X5690150Y-3710630D03*
X5702400Y-2326770D03*
X5692830Y-862570D03*
X5784770Y-4749570D03*
X5766400Y-1256070D03*
X5998550Y-4428790D03*
X5975330Y-2341960D03*
X6018880Y-1270770D03*
X6016050Y983900D03*
X6125410Y-3061420D03*
X6216280Y4316210D03*
X6274400Y-1246170D03*
X6351700Y-2680300D03*
X6344060Y-2544670D03*
X6438440Y983900D03*
X6463650Y3983090D03*
X6528400Y-1262230D03*
X6571020Y-3803850D03*
X6801690Y-3025390D03*
X6783180Y1317260D03*
X6853510Y-2026810D03*
X6963880Y-1930680D03*
X7005380Y-2656470D03*
X7068540Y-3805050D03*
X7125000Y1453000D03*
X7165930Y-1827520D03*
X7165260Y-1355900D03*
X7179210Y138700D03*
X7482200Y4371170D03*
X7531760Y901590D03*
G54D21*
G01X-7787300Y1409600D02*
X-7687000D01*
G01Y1309300D02*
Y1409600D01*
G01D02*
Y1509900D01*
G01Y1409600D02*
X-7586700D01*
G01X-7563110Y-2138900D02*
X-7470300D01*
G01X-7569910Y-196100D02*
X-7477100D01*
G01X-7470300Y-2231710D02*
Y-2138900D01*
G01D02*
Y-2046090D01*
G01Y-2138900D02*
X-7377490D01*
G01X-7477100Y-288910D02*
Y-196100D01*
G01D02*
Y-103290D01*
G01Y-196100D02*
X-7384290D01*
G01X-7113020Y-4476080D02*
X-6995220D01*
G01X-7113050Y-2926240D02*
X-6995250D01*
G01X-6995220Y-4593880D02*
Y-4476080D01*
G01D02*
Y-4358280D01*
G01X-6995250Y-3044040D02*
Y-2926240D01*
G01D02*
Y-2808440D01*
G01X-6891150Y1145000D02*
X-6787100D01*
G01X-6834900Y-317000D02*
X-6737100D01*
G01X-6787100Y1040950D02*
Y1145000D01*
G01D02*
Y1249050D01*
G01Y1145000D02*
X-6683050D01*
G01X-6737100Y-414800D02*
Y-317000D01*
G01D02*
Y-219200D01*
G01Y-317000D02*
X-6639300D01*
G01X-5665080Y-4593560D02*
Y-4475760D01*
G01D02*
Y-4357960D01*
G01Y-4475760D02*
X-5547280D01*
G01X-5665380Y-2926140D02*
Y-2808340D01*
G01Y-2926140D02*
X-5547580D01*
G01X-5474900Y-1517000D02*
X-5377100D01*
G01X-5474900Y-117000D02*
X-5377100D01*
G01Y-1614800D02*
Y-1517000D01*
G01D02*
Y-1419200D01*
G01Y-1517000D02*
X-5279300D01*
G01X-5377100Y-214800D02*
Y-117000D01*
G01D02*
Y-19200D01*
G01Y-117000D02*
X-5279300D01*
G01X-766050Y-1650100D02*
X-498500D01*
G01Y-1917650D02*
Y-1650100D01*
G01D02*
Y-1382550D01*
G01Y-1650100D02*
X-230950D01*
G01X-460130Y4463530D02*
X-352330D01*
G01Y4355730D02*
Y4463530D01*
G01D02*
Y4571330D01*
G01Y4463530D02*
X-244530D01*
G01X273950Y-1650100D02*
X541500D01*
G01Y-1917650D02*
Y-1650100D01*
G01D02*
Y-1382550D01*
G01Y-1650100D02*
X809050D01*
G01X1672850Y4033600D02*
X1940400D01*
G01X1788390Y-2712800D02*
X1881200D01*
G01Y-2805610D02*
Y-2712800D01*
G01D02*
Y-2619990D01*
G01Y-2712800D02*
X1974010D01*
G01X1940400Y3766050D02*
Y4033600D01*
G01D02*
Y4301150D01*
G01Y4033600D02*
X2207950D01*
G01X2712790Y-2714200D02*
X2805600D01*
G01X2980400Y4033600D02*
X2712850D01*
G01X2805600Y-2807010D02*
Y-2714200D01*
G01D02*
Y-2621390D01*
G01Y-2714200D02*
X2898410D01*
G01X2980400Y3766050D02*
Y4033600D01*
G01D02*
Y4301150D01*
G01Y4033600D02*
X3247950D01*
G01X3579390Y4602800D02*
X3672200D01*
G01Y4509990D02*
Y4602800D01*
G01D02*
Y4695610D01*
G01Y4602800D02*
X3765010D01*
G01X4595390D02*
X4688200D01*
G01Y4509990D02*
Y4602800D01*
G01D02*
Y4695610D01*
G01Y4602800D02*
X4781010D01*
G01X7389390D02*
X7482200D01*
G01X7442190Y-1355900D02*
X7535000D01*
G01X7439090Y138700D02*
X7531900D01*
G01X7535000Y-1448710D02*
Y-1355900D01*
G01D02*
Y-1263090D01*
G01Y-1355900D02*
X7627810D01*
G01X7531900Y45890D02*
Y138700D01*
G01D02*
Y231510D01*
G01Y138700D02*
X7624710D01*
G01X7482200Y4509990D02*
Y4602800D01*
G01D02*
Y4695610D01*
G01Y4602800D02*
X7575010D01*
G54D12*
X-7605170Y-4026030D03*
X-7604740Y-3375870D03*
X-7154860Y-4025840D03*
X-7154990Y-3376170D03*
X-6737100Y-1517000D03*
Y-1317000D03*
Y-1117000D03*
Y-917000D03*
Y-717000D03*
Y-517000D03*
Y-317000D03*
X-6329950Y-4665920D03*
X-6075810Y-4666230D03*
X-5365000Y-3701030D03*
X-5365010Y-3450850D03*
X-5377100Y-1517000D03*
Y-1317000D03*
Y-1117000D03*
Y-917000D03*
Y-717000D03*
Y-517000D03*
Y-317000D03*
Y-117000D03*
G54D13*
X-7477100Y-696100D03*
Y-446100D03*
Y-196100D03*
X-7470300Y-2138900D03*
Y-1888900D03*
Y-1638900D03*
X-353500Y-2650100D03*
X21500D03*
X396500D03*
X1881200Y-2962800D03*
Y-2712800D03*
Y-2462800D03*
X2085400Y3033600D03*
X2460400D03*
X2805600Y-2964200D03*
Y-2714200D03*
Y-2464200D03*
X2835400Y3033600D03*
X3672200Y4602800D03*
X3926200D03*
X4180200D03*
X4434200D03*
X4688200D03*
X4942200D03*
X5196200D03*
X5450200D03*
X5704200D03*
X5958200D03*
X6212200D03*
X6466200D03*
X6720200D03*
X6974200D03*
X7228200D03*
X7535000Y-1605900D03*
Y-1355900D03*
Y-1105900D03*
X7531900Y-111300D03*
Y138700D03*
Y388700D03*
X7482200Y4602800D03*
G54D14*
X-6995220Y-4476080D03*
X-6995250Y-2926240D03*
X-5665080Y-4475760D03*
X-5665380Y-2926140D03*
G54D15*
X-6787100Y891000D03*
Y1145000D03*
Y1399000D03*
Y1653000D03*
G54D16*
X-6737100Y-117000D03*
X-6583480Y-4666210D03*
X-5364710Y-3951230D03*
G54D17*
X-498500Y-1650100D03*
X541500D03*
X1940400Y4033600D03*
X2980400D03*
G54D18*
X-352330Y4463530D03*
X-98690D03*
X154940D03*
X409510D03*
G54D19*
X3660200Y-545600D03*
Y480400D03*
X4167200Y-545600D03*
X4168200Y480400D03*
X4421200Y-545600D03*
X4422200Y480400D03*
X4675200Y-544600D03*
X4929200Y480400D03*
X5184200D03*
X5438200Y-545600D03*
Y480400D03*
X5692200D03*
X5945200D03*
X6200200D03*
M02*
