G04 ================== begin FILE IDENTIFICATION RECORD ==================*
G04 Layout Name:  c:/cadence_2026/allegro/kit_stm32.brd*
G04 Film Name:    BOTTOM*
G04 File Format:  Gerber RS274X*
G04 File Origin:  Cadence Allegro 25.1-S010*
G04 Origin Date:  Mon May 11 23:31:28 2026*
G04 *
G04 Layer:  ETCH/BOTTOM*
G04 Layer:  PIN/BOTTOM*
G04 Layer:  VIA CLASS/BOTTOM*
G04 *
G04 Offset:    (0.0000 0.0000)*
G04 Mirror:    No*
G04 Mode:      Positive*
G04 Rotation:  0*
G04 FullContactRelief:  No*
G04 UndefLineWidth:     0.0000*
G04 ================== end FILE IDENTIFICATION RECORD ====================*
%FSLAX25Y25*MOMM*%
%IR0*IPPOS*OFA0.00000B0.00000*MIA0B0*SFA1.00000B1.00000*%
%ADD11C,.6096*%
%ADD14C,2.*%
%ADD13C,1.5001*%
%ADD12C,1.6*%
%ADD20C,1.8*%
%ADD22C,1.308*%
%ADD10C,1.65*%
%ADD19R,1.5001X1.5001*%
%ADD17R,1.6X1.6*%
%ADD15C,1.725*%
%ADD21R,1.65X1.65*%
%ADD16R,1.725X1.725*%
%ADD18C,4.9949*%
%ADD23C,.15*%
%ADD24C,.127*%
G75*
%LPD*%
G75*
G54D10*
X-7687000Y647600D03*
Y901600D03*
Y1155600D03*
Y1409600D03*
Y1663600D03*
Y1917600D03*
X3480400Y-1483900D03*
X3734400D03*
X3988400D03*
X4242400D03*
X4496400D03*
X4750400D03*
X5004400D03*
X5258400D03*
X5512400D03*
X5766400D03*
X6020400D03*
X6274400D03*
X6528400D03*
X7612300Y-4429200D03*
Y-4175200D03*
Y-3921200D03*
Y-3667200D03*
Y-3413200D03*
Y-3159200D03*
Y-2905200D03*
G54D20*
X-352330Y4463530D03*
X-98690D03*
X154940D03*
X409510D03*
G54D11*
X-7760800Y2271510D03*
X-7757900Y2537910D03*
X-7755800Y3024090D03*
X-7715320Y-4426540D03*
X-7715330Y-2966390D03*
X-7632710Y3740350D03*
X-7547580Y3179330D03*
X-7463530Y1409600D03*
X-7448680Y1917600D03*
X-7435650Y3370340D03*
X-7491310Y3754230D03*
X-7358410Y-4432590D03*
X-7380700Y2153060D03*
X-7405540Y2707900D03*
X-7303220Y-2964710D03*
X-7275720Y1662600D03*
X-7316750Y4456300D03*
X-7229320Y647600D03*
X-7224930Y900300D03*
X-7259290Y1155100D03*
X-7254300Y2154990D03*
X-7192150Y4297520D03*
X-7116800Y-918410D03*
X-7119880Y2348880D03*
X-7169540Y3738250D03*
X-7089860Y-2138900D03*
X-7065880Y-1660090D03*
X-7095820Y-196100D03*
X-7073060Y4458510D03*
X-6992880Y-1796750D03*
X-7020510Y1145000D03*
X-6921980Y-448370D03*
X-6956350Y3102670D03*
X-6914770Y3252900D03*
X-6920430Y3627640D03*
X-6940730Y4296410D03*
X-6867500Y2585640D03*
X-6855820Y4464020D03*
X-6794690Y3457130D03*
X-6757900Y3753570D03*
X-6694540Y-2433820D03*
X-6730610Y-2084380D03*
X-6728700Y2596920D03*
X-6606780Y-2211340D03*
X-6587440Y1653000D03*
X-6565500Y3741240D03*
X-6507680Y-1773130D03*
X-6507900Y-317000D03*
X-6500680Y998690D03*
X-6452730Y1481680D03*
X-6384440Y3714880D03*
X-6349200Y-2450300D03*
X-6238800Y3663210D03*
X-6207030Y-2434650D03*
X-6192330Y-2131390D03*
X-6193240Y-2011010D03*
X-6139290Y3505110D03*
X-6112760Y2642420D03*
X-6060680Y3393890D03*
X-6011290Y-2171820D03*
X-6010090Y2416520D03*
X-6041160Y2974030D03*
X-6042990Y3065930D03*
X-6034900Y4138210D03*
Y4791560D03*
X-5908370Y-2163100D03*
X-5919510Y-1949850D03*
X-5742800Y483200D03*
X-5704220Y4645600D03*
X-5663400Y-4794810D03*
X-5623540Y-117000D03*
X-5622400Y2363120D03*
X-5679660Y4375600D03*
X-5535870Y-2339400D03*
X-5574400Y-1517000D03*
X-5485100Y-2173670D03*
X-5511700Y465190D03*
X-5522350Y2405840D03*
X-5474470Y3226710D03*
X-5406580Y1993830D03*
X-5382140Y2407010D03*
X-5440450Y2914980D03*
X-5411960Y3623500D03*
X-5363110Y-1822510D03*
X-5375340Y-1680410D03*
X-5275990Y-4140540D03*
X-5246740Y-2393300D03*
X-5300030Y-2198460D03*
X-5266560Y485460D03*
X-5277290Y2653780D03*
X-5248550Y2856090D03*
X-5177440Y-4281130D03*
X-5180560Y-773170D03*
X-5209730Y146330D03*
X-5198160Y252860D03*
X-5164000Y2423510D03*
X-5192820Y3354190D03*
X-5117370Y-3834850D03*
X-5109150Y-3701030D03*
X-5115560Y-3291110D03*
X-5122370Y-3093400D03*
X-5115560Y-2887160D03*
X-5078450Y-2574260D03*
X-5099220Y-2040730D03*
X-5103150Y3461630D03*
X-5024050Y-3562030D03*
X-5004770Y-3211000D03*
X-5023520Y-2994540D03*
X-4952790Y-885350D03*
X-4947130Y2617440D03*
X-4966800Y3498470D03*
X-4905100Y-2916510D03*
X-4903080Y-2410620D03*
Y-2288680D03*
X-4856480Y-1911220D03*
X-4854680Y-1812300D03*
Y-1710750D03*
X-4872680Y-1375370D03*
X-4910810Y-670370D03*
X-4814800Y-2640820D03*
X-4803850Y-2240080D03*
X-4778550Y-1987160D03*
X-4780860Y-1494100D03*
X-4777340Y337910D03*
X-4811740Y2591810D03*
X-4700440Y-2872720D03*
X-4741800Y3051300D03*
X-4761330Y3808760D03*
X-4670080Y-3661330D03*
X-4628920Y-1057160D03*
X-4655040Y-308710D03*
X-4694860Y187080D03*
X-4647380Y1486150D03*
X-4659200Y2361600D03*
X-4666800Y2582620D03*
X-4651230Y3801660D03*
X-4613100Y-3514950D03*
X-4490400Y-3321850D03*
X-4474590Y123200D03*
X-4531390Y206700D03*
X-4516800Y2581730D03*
X-4474180Y3560780D03*
X-4459390Y-2959400D03*
X-4461140Y-2672660D03*
X-4419300Y537200D03*
X-4375340Y-3772010D03*
X-4348510Y-370440D03*
X-4352860Y2010940D03*
X-4393620Y2571840D03*
X-4394660Y3504230D03*
X-4322490Y-2785160D03*
X-4315990Y-2508800D03*
X-4314190Y-2107360D03*
X-4311490Y-1970660D03*
X-4315990Y-1829460D03*
X-4316880Y-1691410D03*
X-4316800Y-1549400D03*
X-4312580Y-1083710D03*
X-4262400Y-120600D03*
X-4319300Y72080D03*
X-4298000Y521640D03*
X-4254680Y2548450D03*
X-4251730Y3091400D03*
X-4273930Y3253810D03*
X-4267790Y3489170D03*
X-4246300Y-2358800D03*
X-4241500Y-1279070D03*
X-4233080Y-1015030D03*
X-4221620Y-723810D03*
X-4225530Y2830980D03*
X-4187810Y3410950D03*
X-4225100Y4062090D03*
X-4105460Y-4110510D03*
X-4116400Y-3284920D03*
X-4161500Y-2746480D03*
X-4161600Y-204600D03*
X-4143150Y3610630D03*
X-4093370Y-78320D03*
X-4044390Y2705830D03*
X-4087240Y3310880D03*
X-4046130Y3519800D03*
X-3966490Y2964200D03*
X-4020000Y3255590D03*
X-3881250Y-3755180D03*
X-3916620Y-3504860D03*
X-3893920Y853030D03*
X-3934770Y1771080D03*
X-3872620Y2990010D03*
X-3806880Y-1983170D03*
X-3814900Y78700D03*
X-3806890Y782030D03*
X-3807990Y2236120D03*
X-3735870Y-3758470D03*
X-3737310Y-2739400D03*
X-3789830Y-1404030D03*
X-3745060Y-190600D03*
X-3660700Y-3404520D03*
X-3662090Y-2082100D03*
X-3651330Y-1511950D03*
X-3658530Y-1278130D03*
X-3656900Y1118770D03*
X-3647730Y2864180D03*
X-3639550Y-285730D03*
X-3573830Y-181950D03*
X-3582660Y2118600D03*
X-3551510Y-4440160D03*
X-3522900Y-3570820D03*
X-3559590Y-3474290D03*
X-3512860Y-2817530D03*
X-3503810Y-1981370D03*
X-3521830Y-1396840D03*
X-3556960Y7850D03*
X-3551720Y1893100D03*
X-3433690Y-4397000D03*
X-3477610Y-3305060D03*
X-3463130Y-301300D03*
X-3465900Y1168300D03*
X-3375210Y-3282450D03*
X-3415700Y-1761970D03*
X-3351770Y691690D03*
X-3407550Y812500D03*
X-3390520Y3306650D03*
X-3383390Y3443280D03*
X-3296130Y-3765710D03*
X-3317960Y-3635090D03*
X-3315240Y-2830930D03*
X-3268210Y-1891470D03*
X-3282510Y595750D03*
X-3338420Y2723840D03*
X-3201180Y-2823140D03*
X-3261030Y-1657640D03*
X-3249950Y189130D03*
X-3237870Y920930D03*
X-3155220Y-3371410D03*
X-3182020Y317800D03*
X-3059570Y-4652410D03*
X-3094850Y-3627120D03*
X-3106340Y-1758370D03*
X-3105090Y-284000D03*
X-3115690Y46100D03*
X-3071000Y474360D03*
X-3108300Y796870D03*
X-3030200Y-4329530D03*
X-3033870Y-4193530D03*
X-2985820Y-1997590D03*
X-2996620Y-1375250D03*
X-2942120Y-3449520D03*
X-2961500Y-3108220D03*
X-2941560Y4169250D03*
X-2868130Y-3580730D03*
X-2874310Y-2076730D03*
X-2876110Y-1502960D03*
X-2877910Y-1256540D03*
X-2858400Y1578700D03*
X-2873780Y2654540D03*
X-2802750Y-2800520D03*
X-2757390Y-1990400D03*
X-2744800Y-1366260D03*
X-2689970Y-3611000D03*
X-2705840Y-3330560D03*
X-2664680Y694550D03*
X-2660310Y-3765710D03*
X-2661500Y-743910D03*
X-2649140Y1629020D03*
X-2534660Y82750D03*
X-2540820Y1721350D03*
X-2517180Y3553690D03*
X-2461290Y-204280D03*
X-2465670Y2046620D03*
X-2491410Y2957850D03*
X-2495850Y3673390D03*
X-2494800Y4596530D03*
X-2401270Y-3875390D03*
X-2362190Y-3115460D03*
X-2362870Y-286900D03*
X-2381070Y434340D03*
X-2432500Y1611260D03*
X-2419440Y2183430D03*
X-2294570Y-4341940D03*
X-2292280Y-4197670D03*
X-2344900Y-3580740D03*
X-2334840Y1756870D03*
X-2271390Y-3342040D03*
X-2268160Y-2359120D03*
X-2211140Y-1741320D03*
X-2265580Y1630790D03*
X-2206880Y-2098790D03*
X-2192690Y4341120D03*
Y4485110D03*
X-2061500Y-803250D03*
X-2067240Y580100D03*
X-2091560Y1637900D03*
X-2072040Y3026520D03*
X-2087180Y4420680D03*
X-2048260Y-2958060D03*
X-2050730Y2886230D03*
X-1988580Y4494190D03*
X-1938610Y1962570D03*
X-1956610Y2960810D03*
X-1934860Y3566980D03*
X-1881510Y-2128600D03*
X-1902150Y-18160D03*
X-1903750Y4030410D03*
X-1801230Y-2954120D03*
X-1781120Y-1459400D03*
X-1760940Y-1207980D03*
X-1823570Y-1058690D03*
X-1761000Y-507460D03*
X-1799630Y-209550D03*
X-1816700Y159000D03*
X-1771320Y3667950D03*
X-1752040Y-1740400D03*
X-1699780Y-1559400D03*
X-1731490Y-1008450D03*
X-1714250Y800100D03*
X-1653020Y-4681190D03*
X-1621150Y-1191960D03*
X-1615910Y-1074350D03*
X-1673770Y-420220D03*
X-1604900Y-4360790D03*
X-1603980Y-4223860D03*
X-1561880Y-1813390D03*
X-1582050Y-1533520D03*
X-1553770Y-448570D03*
X-1516320Y-2418480D03*
X-1517810Y-676600D03*
X-1486730Y1240820D03*
X-1413870Y-748480D03*
X-1420890Y4063130D03*
X-1362160Y-1144190D03*
X-1334220Y-822800D03*
X-1314930Y-570870D03*
X-1328230Y1120240D03*
X-1123800Y-3721230D03*
X-1139790Y-3337680D03*
X-1111370Y-2760560D03*
X-1149360Y-1162980D03*
X-1084610Y-1038880D03*
X-1138810Y-415500D03*
X-1138980Y-114290D03*
Y477530D03*
X-1026100Y-2723250D03*
X-1037870Y-1263740D03*
X-1016310Y-411840D03*
X-1071390Y-236000D03*
X-1026100Y1059050D03*
X-1002060Y-1142600D03*
X-937390Y-131790D03*
X-899270Y-430090D03*
X-902050Y132910D03*
X-907090Y631600D03*
X-782300Y-457560D03*
X-806370Y-127890D03*
X-788710Y598230D03*
X-742380Y160810D03*
X-708260Y698780D03*
X-602780Y725350D03*
X-570190Y1434290D03*
X-534220Y1058370D03*
X-500150Y1255360D03*
X-544540Y4463530D03*
X-471110Y-4681700D03*
X-464110Y-864430D03*
X-449730Y-763720D03*
X-437820Y-70170D03*
X-327230Y-1347090D03*
X-378640Y-931860D03*
X-383330Y194240D03*
X-386880Y302560D03*
X-327230Y439290D03*
X-376230Y748640D03*
X-269920Y-981400D03*
X-269280Y371810D03*
X-300500Y792960D03*
X-274770Y1693700D03*
X-214820Y299010D03*
X-135830Y-2896750D03*
X-100660Y-2072460D03*
X-163140Y-1824760D03*
X-156010Y254610D03*
X-24880Y-1454980D03*
X-96820Y210760D03*
X-13920Y-3815310D03*
X15220Y-1899510D03*
X-15910Y-1570860D03*
X49820Y-1356390D03*
X23010Y134750D03*
X-15740Y277700D03*
X84410Y-1242230D03*
X91670Y241300D03*
X151010Y-1979940D03*
X165380Y146290D03*
X192020Y266150D03*
X247950Y179140D03*
X237290Y349620D03*
X316360Y-3859700D03*
X301210Y-875640D03*
X305650Y-746890D03*
X302100Y-398860D03*
X327850Y393120D03*
X359810Y-278990D03*
X417530Y416210D03*
X405230Y1689260D03*
X520290Y-1079650D03*
Y-929170D03*
X552480Y-462780D03*
X618030Y-2881290D03*
X592940Y-773490D03*
X710980Y-754880D03*
X718550Y175000D03*
X709530Y573800D03*
X791090Y-666760D03*
X770750Y435520D03*
X861030Y-1131530D03*
X855180Y-556380D03*
X831270Y53980D03*
X861500Y176510D03*
X854790Y1208460D03*
X929060Y-465590D03*
X933510Y282980D03*
X996530Y-2271110D03*
X983150Y-1148190D03*
X980690Y-125000D03*
X970010Y-10550D03*
X1090220Y-2862060D03*
X1092910Y23580D03*
X1166560Y-2207100D03*
X1159810Y85940D03*
X1196610Y-2760860D03*
X1207650Y-1675230D03*
X1237120Y-389470D03*
X1309190Y-2126660D03*
X1317230Y-745540D03*
X1324920Y43300D03*
X1390510Y-1842900D03*
X1372420Y-1518220D03*
X1393990Y-1279770D03*
X1368760Y-1001430D03*
X1400580Y-152200D03*
X1396800Y145830D03*
X1410210Y1405700D03*
X1379730Y1613010D03*
X1470590Y-3696330D03*
X1447090Y-935560D03*
X1427510Y-820740D03*
X1411580Y776280D03*
X1544670Y-1962890D03*
X1584840Y-476090D03*
X1653220Y-2459480D03*
X1710560Y1001290D03*
X1713990Y-1134410D03*
X1742110Y-904590D03*
X1781210Y-742360D03*
X1836950Y-1489200D03*
X1846740Y428060D03*
X1898730Y-4330200D03*
X1877230Y-1279320D03*
X1885020Y-936490D03*
X1876660Y-565860D03*
X1895410Y-463480D03*
X1907480Y22160D03*
X1883430Y146680D03*
X1909200Y900240D03*
X1955780Y-1962890D03*
X1980120Y-1750750D03*
X1972780Y-1647670D03*
X2006070Y-1252860D03*
X2001620Y-992530D03*
X1978580Y187590D03*
X1999290Y502260D03*
X2050420Y-2712800D03*
X2015580Y-1422980D03*
X2050610Y-527450D03*
X2039960Y-415500D03*
X2022140Y-219890D03*
X2054400Y903920D03*
X2097750Y185060D03*
X2307840Y-4330200D03*
X2287360Y-4202440D03*
X2253500Y-3173180D03*
X2283890Y2535390D03*
Y2789800D03*
X2382340Y-1859390D03*
X2322050Y-1572860D03*
X2320280Y-1076190D03*
X2349650Y-743300D03*
X2327380Y-219600D03*
X2344750Y16840D03*
X2375350Y390570D03*
X2336430Y508180D03*
X2403060Y-1014770D03*
X2445400Y-414600D03*
X2466460Y486560D03*
X2519780Y-2463380D03*
X2475790Y-1792650D03*
X2507390Y-1575640D03*
X2528270Y-865390D03*
X2523250Y-765650D03*
X2520640Y-654140D03*
X2541320Y-141430D03*
X2604210Y-1111800D03*
X2588970Y-28010D03*
X2550800Y695550D03*
X2656000Y-1575180D03*
X2779230Y-1408280D03*
X2787880Y-875550D03*
Y290250D03*
X2782230Y782320D03*
X2889920Y-1513790D03*
X2853600Y-28010D03*
X2983100Y-4796490D03*
X2983660Y-2714200D03*
X2948460Y-1867630D03*
X2969490Y-1742100D03*
X2970920Y-892840D03*
X2943540Y-194060D03*
X3062890Y-242490D03*
X3053020Y2795710D03*
X3079920Y-1947940D03*
X3125170Y-937800D03*
X3179000Y-3172760D03*
X3152020Y-2084450D03*
X3227130Y-1789090D03*
X3358470Y-1947940D03*
X3369590Y-1810810D03*
X3381700Y-4787430D03*
X3417470Y-882460D03*
X3426110Y-315130D03*
X3480590Y-143030D03*
X3570850Y-883930D03*
X3616380Y-2677850D03*
X3603550Y-1877660D03*
X3601680Y-1163540D03*
X3672200Y4365430D03*
X3736690Y-1797400D03*
X3780300Y-4795610D03*
X3819360Y-3064980D03*
X3887680Y971580D03*
X3930450Y-802040D03*
X3989040Y-1695220D03*
X3976730Y-321400D03*
X4182500Y-4792490D03*
X4138180Y-1284620D03*
X4143060Y-1164400D03*
X4249450Y-3847110D03*
X4294140Y-3407500D03*
X4498170Y-3014760D03*
X4576220Y-4774380D03*
X4569430Y-1712700D03*
X4708450Y-3786790D03*
X4688200Y4387990D03*
X4770830Y-4679660D03*
X4801200Y-273620D03*
X4737210Y1221240D03*
X4809860Y-2003280D03*
X4815200Y848190D03*
X4955150Y-929170D03*
X4993210Y-4769650D03*
X5012440Y-3775490D03*
X5023130Y-2397200D03*
X5173330Y-4688850D03*
X5389950Y-4765920D03*
X5371570Y982250D03*
X5361610Y1255400D03*
X5557470Y-4572140D03*
X5510240Y1222700D03*
X5690150Y-3710630D03*
X5702400Y-2326770D03*
X5692830Y-862570D03*
X5784770Y-4749570D03*
X5766400Y-1256070D03*
X5998550Y-4428790D03*
X5975330Y-2341960D03*
X6018880Y-1270770D03*
X6016050Y983900D03*
X6125410Y-3061420D03*
X6216280Y4316210D03*
X6274400Y-1246170D03*
X6351700Y-2680300D03*
X6344060Y-2544670D03*
X6438440Y983900D03*
X6463650Y3983090D03*
X6528400Y-1262230D03*
X6571020Y-3803850D03*
X6801690Y-3025390D03*
X6783180Y1317260D03*
X6853510Y-2026810D03*
X6963880Y-1930680D03*
X7005380Y-2656470D03*
X7068540Y-3805050D03*
X7125000Y1453000D03*
X7165930Y-1827520D03*
X7165260Y-1355900D03*
X7179210Y138700D03*
X7482200Y4371170D03*
X7531760Y901590D03*
G54D21*
X3226400Y-1483900D03*
X7612300Y-2651200D03*
G54D12*
X-7605170Y-4026030D03*
X-7604740Y-3375870D03*
X-7154860Y-4025840D03*
X-7154990Y-3376170D03*
X-6737100Y-1517000D03*
Y-1317000D03*
Y-1117000D03*
Y-917000D03*
Y-717000D03*
Y-517000D03*
Y-317000D03*
X-6329950Y-4665920D03*
X-6075810Y-4666230D03*
X-5365000Y-3701030D03*
X-5365010Y-3450850D03*
X-5377100Y-1517000D03*
Y-1317000D03*
Y-1117000D03*
Y-917000D03*
Y-717000D03*
Y-517000D03*
Y-317000D03*
Y-117000D03*
G54D22*
X3660200Y-545600D03*
Y480400D03*
X4167200Y-545600D03*
X4168200Y480400D03*
X4421200Y-545600D03*
X4422200Y480400D03*
X4675200Y-544600D03*
X4929200Y480400D03*
X5184200D03*
X5438200Y-545600D03*
Y480400D03*
X5692200D03*
X5945200D03*
X6200200D03*
G54D13*
X-7477100Y-696100D03*
Y-446100D03*
Y-196100D03*
X-7470300Y-2138900D03*
Y-1888900D03*
Y-1638900D03*
X21500Y-2650100D03*
X396500D03*
X1881200Y-2962800D03*
Y-2712800D03*
Y-2462800D03*
X2460400Y3033600D03*
X2805600Y-2964200D03*
Y-2714200D03*
Y-2464200D03*
X2835400Y3033600D03*
X3926200Y4602800D03*
X4180200D03*
X4434200D03*
X4688200D03*
X4942200D03*
X5196200D03*
X5450200D03*
X5704200D03*
X5958200D03*
X6212200D03*
X6466200D03*
X6720200D03*
X6974200D03*
X7228200D03*
X7535000Y-1605900D03*
Y-1355900D03*
Y-1105900D03*
X7531900Y-111300D03*
Y138700D03*
Y388700D03*
X7482200Y4602800D03*
G54D23*
G01X-7448680Y1917600D02*
X-6837580D01*
X-6112760Y2642420D01*
G01X-7229320Y647600D02*
X-6001450D01*
X-4186440Y2462610D01*
Y2774620D01*
X-4174850Y2786210D01*
Y2851980D01*
X-4186440Y2863570D01*
Y3026660D01*
X-4215340Y3055560D01*
X-4215890D01*
X-4251730Y3091400D01*
G01X-4811740Y2591810D02*
Y1936260D01*
X-6072700Y675300D01*
X-7085830D01*
X-7224930Y814400D01*
Y900300D01*
G01X-7169540Y3738250D02*
Y3647420D01*
X-7149760Y3627640D01*
X-6920430D01*
G01X-5919510Y-1949850D02*
X-6012590Y-1856770D01*
X-6726350D01*
X-6923030Y-1660090D01*
X-7065880D01*
G01X-4474180Y3560780D02*
X-4539900Y3626500D01*
X-4712120D01*
X-4867990Y3782370D01*
X-5569350D01*
X-6249050Y3102670D01*
X-6956350D01*
G01X-6192330Y-2131390D02*
X-6074580Y-2249140D01*
X-5446250D01*
X-5344890Y-2147780D01*
X-4914850D01*
X-4854330Y-2087260D01*
X-4736700D01*
X-4611040Y-2212920D01*
X-1288820D01*
X-1037160Y-1961260D01*
Y-1388960D01*
X-1037880Y-1388240D01*
Y-1368050D01*
X-1088550Y-1317380D01*
Y-1213720D01*
X-1084610Y-1209780D01*
Y-1038880D01*
G01X-6193240Y-2011010D02*
X-5405700D01*
X-5180560Y-1785870D01*
Y-773170D01*
G01X-4143150Y3610630D02*
X-4077610Y3676170D01*
Y4044110D01*
X-4255670Y4222170D01*
X-5950940D01*
X-6034900Y4138210D01*
G01X-1149360Y-1162980D02*
Y-1315940D01*
X-1064860Y-1400440D01*
Y-1949780D01*
X-1297070Y-2181990D01*
X-4563890D01*
X-4705460Y-2040420D01*
X-4905800D01*
X-4977480Y-2112100D01*
X-5951570D01*
X-6011290Y-2171820D01*
G01X-4046130Y3519800D02*
Y4476680D01*
X-4215050Y4645600D01*
X-5704220D01*
G01X-1002060Y-1142600D02*
Y-1193280D01*
X-976730Y-1218610D01*
Y-1994870D01*
X-1260950Y-2279090D01*
X-4678560D01*
X-4738870Y-2339400D01*
X-5535870D01*
G01X-5246740Y-2393300D02*
X-5466180Y-2612740D01*
Y-4504920D01*
X-5207180Y-4763920D01*
X-1735750D01*
X-1653020Y-4681190D01*
G01X-5411960Y3623500D02*
X-5265020D01*
X-5103150Y3461630D01*
G01X-1037870Y-1263740D02*
Y-1317640D01*
X-1009100Y-1346410D01*
Y-1982160D01*
X-1272890Y-2245950D01*
X-4665330D01*
X-4756920Y-2154360D01*
X-4837790D01*
X-4881890Y-2198460D01*
X-5300030D01*
G01X-5266560Y485460D02*
X-5215880D01*
X-5203450Y497890D01*
X-4707210D01*
X-4350290Y140970D01*
X-3988660D01*
X-3855540Y7850D01*
X-3556960D01*
G01X-4947130Y2617440D02*
X-4996850Y2667160D01*
X-5157850D01*
X-5248550Y2757860D01*
Y2856090D01*
G01X-5099220Y-2040730D02*
Y-896780D01*
X-5005690Y-803250D01*
X-2061500D01*
G01X-4267790Y3489170D02*
X-4449780Y3307180D01*
X-4713220D01*
X-4947130Y3073270D01*
Y2617440D01*
G01X-4856480Y-1911220D02*
X-4370930D01*
X-4311490Y-1970660D01*
G01X-4854680Y-1812300D02*
X-4383830D01*
X-4366670Y-1829460D01*
X-4315990D01*
G01X-4854680Y-1710750D02*
X-4804000D01*
X-4788450Y-1726300D01*
X-4351770D01*
X-4316880Y-1691410D01*
G01X-4778550Y-1987160D02*
X-4434390D01*
X-4314190Y-2107360D01*
G01X-4316800Y-1549400D02*
Y-1508690D01*
X-4331930Y-1493560D01*
X-4729640D01*
X-4730180Y-1494100D01*
X-4780860D01*
G01X-4700440Y-2872720D02*
X-4615280Y-2787560D01*
X-4444400D01*
X-4332350Y-2675510D01*
X-4065650D01*
X-4001760Y-2739400D01*
X-3737310D01*
G01X-4651230Y3801660D02*
X-4615390Y3837500D01*
X-4532300D01*
X-4267790Y3572990D01*
Y3489170D01*
G01X-4375340Y-3772010D02*
Y-3709930D01*
X-4310570Y-3645160D01*
X-3779030D01*
X-3735870Y-3688320D01*
Y-3758470D01*
G01X-1026100Y1059050D02*
X-1853590Y1886540D01*
X-2791170D01*
X-3447300Y2542670D01*
X-3714540D01*
X-3966490Y2794620D01*
Y2964200D01*
G01X-3916620Y-3504860D02*
X-3709780D01*
X-3660320Y-3554320D01*
Y-4530100D01*
X-3538010Y-4652410D01*
X-3059570D01*
G01X-3551510Y-4440160D02*
X-3631540Y-4360130D01*
Y-3526440D01*
X-3660700Y-3497280D01*
Y-3404520D01*
G01X-3559590Y-3474290D02*
Y-3519250D01*
X-3599160Y-3558820D01*
Y-3713500D01*
X-3433690Y-3878970D01*
Y-4397000D01*
G01X2287360Y-4202440D02*
Y-4135760D01*
X2272360Y-4120760D01*
X1939310D01*
X1784800Y-3966250D01*
X-2436020D01*
X-2542560Y-3859710D01*
X-3341640D01*
X-3522900Y-3678450D01*
Y-3570820D01*
G01X-2461290Y-204280D02*
X-2875260Y209690D01*
X-3013800D01*
X-3121910Y317800D01*
X-3182020D01*
G01X-2802750Y-2800520D02*
X-1954830D01*
X-1801230Y-2954120D01*
G01X-1516320Y-2418480D02*
Y-3155930D01*
X-1804090Y-3443700D01*
X-1969580D01*
X-2401270Y-3875390D01*
G01X-2206880Y-2098790D02*
X-1911320D01*
X-1881510Y-2128600D01*
G01X-1902150Y-18160D02*
X-1988470Y-104480D01*
Y-980450D01*
X-1760940Y-1207980D01*
G01X-1731490Y-1008450D02*
X-1745670Y-994270D01*
X-1826040D01*
X-1843260Y-977050D01*
Y-464550D01*
X-1486730Y-108020D01*
Y1240820D01*
G01X-1731490Y-1008450D02*
Y-1142620D01*
X-1410130Y-1640930D01*
X-1427230Y-1770790D01*
X-1561880Y-1813390D01*
G01X-1621150Y-1191960D02*
X-1668990Y-1144120D01*
X-1693690D01*
X-1703790Y-1134020D01*
Y-1052430D01*
X-1680810Y-1029450D01*
Y-987450D01*
X-1710490Y-957770D01*
X-1742690D01*
X-1802370Y-898090D01*
Y-548830D01*
X-1761000Y-507460D01*
G01X-1673770Y-420220D02*
Y-897750D01*
X-1609910Y-961610D01*
X-1381500D01*
X-1362160Y-980950D01*
Y-1144190D01*
G01X-1615910Y-1074350D02*
X-1565230D01*
X-1419250Y-1220330D01*
X-1317100D01*
X-1306480Y-1209710D01*
Y-947140D01*
X-1413870Y-839750D01*
Y-748480D01*
G01X996530Y-2271110D02*
X951290Y-2316350D01*
X-880520D01*
X-940760Y-2256110D01*
Y-613550D01*
X-1138810Y-415500D01*
G01X-1138980Y-114290D02*
Y477530D01*
G01X-742380Y160810D02*
X-694210Y112640D01*
Y-168500D01*
X-761710Y-236000D01*
X-1071390D01*
G01X1166560Y-2207100D02*
X988860D01*
X933230Y-2262730D01*
X-837690D01*
X-908320Y-2192100D01*
Y-581110D01*
X-1016310Y-473120D01*
Y-411840D01*
G01X1309190Y-2126660D02*
X1268250Y-2167600D01*
X1198740D01*
X1187560Y-2156420D01*
X1145560D01*
X1127460Y-2174520D01*
X-795840D01*
X-858700Y-2111660D01*
Y-470660D01*
X-899270Y-430090D01*
G01X1999290Y502260D02*
X744550Y1757000D01*
X-827140D01*
X-942930Y1641210D01*
Y667440D01*
X-907090Y631600D01*
G01X2066600Y278520D02*
X1906380D01*
X1772220Y412680D01*
Y595910D01*
X756420Y1611710D01*
X-797730D01*
X-844210Y1565670D01*
X-852120Y662760D01*
X-788710Y598230D01*
G01X-782300Y-457560D02*
Y-1516190D01*
X-793850Y-1527740D01*
Y-2098830D01*
X-751020Y-2141660D01*
X1121140D01*
X1134080Y-2128720D01*
X1235450D01*
X1288190Y-2075980D01*
X1330190D01*
X1359870Y-2105660D01*
Y-2116280D01*
X1374870Y-2131280D01*
X1489170D01*
X1972780Y-1647670D01*
G01X2022140Y-219890D02*
Y-169210D01*
X1427500Y425430D01*
Y618540D01*
X1238800Y807240D01*
Y1035110D01*
X717550Y1556360D01*
X-754480D01*
X-770430Y1540410D01*
Y760950D01*
X-708260Y698780D01*
G01X-437820Y-70170D02*
Y961970D01*
X-534220Y1058370D01*
G01X-570190Y1434290D02*
Y1198670D01*
X-376230Y1004710D01*
Y748640D01*
G01X-352330Y4463530D02*
X-544540D01*
G01X-327230Y-1347090D02*
Y439290D01*
G01X-269280Y371810D02*
Y-866270D01*
X-230610Y-904940D01*
Y-949030D01*
X-219240Y-960400D01*
Y-1002400D01*
X-228550Y-1011710D01*
Y-1871350D01*
X-119960Y-1979940D01*
X151010D01*
G01X-214820Y299010D02*
Y-871010D01*
X-183710Y-902120D01*
Y-1753510D01*
X-163140Y-1774080D01*
Y-1824760D01*
G01X-156010Y254610D02*
Y-1728280D01*
X15220Y-1899510D01*
G01X718550Y175000D02*
Y-531100D01*
X193380Y-1056270D01*
Y-1871840D01*
X262560Y-1941020D01*
Y-2020580D01*
X210670Y-2072470D01*
X-42190D01*
X-42200Y-2072460D01*
X-100660D01*
G01X-15910Y-1570860D02*
X-92880Y-1493890D01*
Y156140D01*
X-96820Y160080D01*
Y210760D01*
G01X-13920Y-3815310D02*
X271970D01*
X316360Y-3859700D01*
G01X-15740Y277700D02*
Y174710D01*
X-59920Y130530D01*
Y-1419940D01*
X-24880Y-1454980D01*
G01X23010Y134750D02*
X-28880Y82860D01*
Y-1277690D01*
X49820Y-1356390D01*
G01X91670Y241300D02*
Y101640D01*
X5710Y15680D01*
Y-1163530D01*
X84410Y-1242230D01*
G01X520290Y-1079650D02*
Y-929170D01*
G01Y-1079650D02*
X670770Y-1230130D01*
X1066960D01*
X1121310Y-1284480D01*
Y-1988000D01*
X1136310Y-2003000D01*
X1504560D01*
X1544670Y-1962890D01*
G01X1324920Y43300D02*
Y134750D01*
X885870Y573800D01*
X709530D01*
G01X770750Y435520D02*
X957560D01*
X1204860Y188220D01*
Y167000D01*
X1179960Y142100D01*
G01X929060Y-465590D02*
Y-516270D01*
X948640Y-535850D01*
Y-1043920D01*
X861030Y-1131530D01*
G01X1179960Y142100D02*
X1158010Y164050D01*
X1014840D01*
X900580Y49790D01*
Y-162970D01*
X983150Y-245540D01*
Y-1148190D01*
G01X980690Y-125000D02*
X1042230D01*
X1130220Y-212990D01*
Y-427690D01*
X1955390Y-1252860D01*
X2006070D01*
G01X970010Y-10550D02*
X1021270D01*
X1162270Y-151550D01*
Y-403250D01*
X1457860Y-698840D01*
X1647370D01*
X1885020Y-936490D01*
G01X996530Y-2271110D02*
X1032370Y-2306950D01*
X1105890D01*
X1141730Y-2271110D01*
X3091560D01*
X3227130Y-2135540D01*
Y-1789090D01*
G01X3616380Y-2677850D02*
X3536830D01*
X3352620Y-2862060D01*
X1090220D01*
G01X1092910Y23580D02*
X1237120Y-120630D01*
Y-389470D01*
G01X1196610Y-2760860D02*
X1753520D01*
X1808890Y-2816230D01*
X3286020D01*
X3514330Y-2587920D01*
X4225220D01*
X4809860Y-2003280D01*
G01X1166560Y-2207100D02*
X3029370D01*
X3152020Y-2084450D01*
G01X1179960Y142100D02*
X1205950Y116110D01*
Y111480D01*
X1215720Y101710D01*
Y-7240D01*
X1248610Y-40130D01*
X1381210D01*
X1400580Y-59500D01*
Y-152200D01*
G01X1317230Y-745540D02*
X1230790Y-831980D01*
Y-1376590D01*
X1372420Y-1518220D01*
G01X1309190Y-2126660D02*
X1345030Y-2162500D01*
X1497130D01*
X1532970Y-2126660D01*
X2901200D01*
X3079920Y-1947940D01*
G01X1877230Y-1279320D02*
X1713990Y-1134410D01*
G01X1742110Y-904590D02*
Y-955270D01*
X1926300Y-1139460D01*
X2379080D01*
X2454670Y-1215050D01*
X4068610D01*
X4138180Y-1284620D01*
G01X2523250Y-765650D02*
X2419020Y-661420D01*
X1862150D01*
X1781210Y-742360D01*
G01X1881200Y-2712800D02*
X2050420D01*
G01X2375350Y390570D02*
X1906490D01*
X1904840Y392220D01*
X1882580D01*
X1846740Y428060D01*
G01X1955780Y-1962890D02*
X2853200D01*
X2948460Y-1867630D01*
G01X2656000Y-1575180D02*
Y-1625860D01*
X2641350Y-1640510D01*
X2136430D01*
X1938960Y-1443040D01*
Y-1319970D01*
X2006070Y-1252860D01*
G01X2588970Y-28010D02*
X2553130Y-63850D01*
X1993490D01*
X1907480Y22160D01*
G01X4569430Y-1712700D02*
X4496790D01*
X4360140Y-1849350D01*
X3906970D01*
X3733740Y-1676120D01*
X2963790D01*
X2936200Y-1703710D01*
X2027160D01*
X1980120Y-1750750D01*
G01X3989040Y-1695220D02*
X3940570Y-1646750D01*
X2953980D01*
X2931730Y-1669000D01*
X2044790D01*
X2023460Y-1647670D01*
X1972780D01*
G01X2015580Y-1422980D02*
X2070220Y-1477620D01*
X2853750D01*
X2889920Y-1513790D01*
G01X2520640Y-654140D02*
X2486050Y-619550D01*
X2142710D01*
X2050610Y-527450D01*
G01X2066600Y278520D02*
X2097750Y247370D01*
Y185060D01*
G01X2066600Y278520D02*
X2519390D01*
X2670250Y127660D01*
Y-1000080D01*
X2718680Y-1048510D01*
X6243740D01*
X6274400Y-1079170D01*
Y-1246170D01*
G01X2327380Y-219600D02*
X2378060D01*
X2632210Y-473750D01*
Y-1050250D01*
X2678900Y-1096940D01*
X5932390D01*
X6018880Y-1183430D01*
Y-1270770D01*
G01X2336430Y508180D02*
X2465940Y378670D01*
X2466800D01*
X2716110Y129360D01*
Y-968950D01*
X2748100Y-1000940D01*
X6485050D01*
X6528400Y-1044290D01*
Y-1262230D01*
G01X2283890Y2535390D02*
Y2789800D01*
G01X2969490Y-1742100D02*
X2526340D01*
X2475790Y-1792650D01*
G01X2604210Y-1111800D02*
Y-522730D01*
X2496080Y-414600D01*
X2445400D01*
G01X5766400Y-1256070D02*
Y-1312700D01*
X5707800Y-1371300D01*
X3056630D01*
X3019650Y-1408280D01*
X2779230D01*
G01X2787880Y-875550D02*
Y290250D01*
G01X7125000Y1453000D02*
X3452910D01*
X2782230Y782320D01*
G01X2853600Y-28010D02*
Y-928610D01*
X2892600Y-967610D01*
X2995850D01*
X3116840Y-846620D01*
X3381630D01*
X3417470Y-882460D01*
G01X2943540Y-194060D02*
X3462440Y324840D01*
X3815290D01*
X3960580Y470130D01*
Y1314210D01*
X4031500Y1385130D01*
X5423910D01*
X5510240Y1298800D01*
Y1222700D01*
G01X2970920Y-892840D02*
Y-672090D01*
X3327880Y-315130D01*
X3426110D01*
G01X4737210Y1221240D02*
X4697440Y1181470D01*
Y485730D01*
X3969220Y-242490D01*
X3062890D01*
G01X4801200Y-273620D02*
Y-922800D01*
X4786200Y-937800D01*
X3125170D01*
G01X3736690Y-1797400D02*
Y-1903040D01*
X3691790Y-1947940D01*
X3358470D01*
G01X3369590Y-1810810D02*
X3536700D01*
X3603550Y-1877660D01*
G01X3480590Y-143030D02*
X3855080Y231460D01*
Y317920D01*
X4000370Y463210D01*
Y1296920D01*
X4048790Y1345340D01*
X5271670D01*
X5361610Y1255400D01*
G01X4339810Y-3014760D02*
X3869580D01*
X3819360Y-3064980D01*
G01X4339810Y-3014760D02*
X4125220Y-3229350D01*
Y-3889920D01*
X4173170Y-3937870D01*
X4757370D01*
X4919750Y-3775490D01*
X5012440D01*
G01X4498170Y-3014760D02*
X4339810D01*
G01X4498170D02*
X4548850D01*
X4551520Y-3017430D01*
X4737660D01*
X4788030Y-2967060D01*
Y-2476040D01*
X4866870Y-2397200D01*
X5023130D01*
G01X4688200Y4602800D02*
Y4387990D01*
G01X5690150Y-3710630D02*
X5077300D01*
X5012440Y-3775490D01*
G01X5702400Y-2326770D02*
X5093560D01*
X5023130Y-2397200D01*
G01X6125410Y-3061420D02*
X6074730D01*
X6073900Y-3060590D01*
X5921120D01*
X5892340Y-3089370D01*
Y-3650550D01*
X5832260Y-3710630D01*
X5690150D01*
G01X6801690Y-3025390D02*
X6161440D01*
X6125410Y-3061420D01*
G54D14*
X-6995220Y-4476080D03*
X-6995250Y-2926240D03*
X-5665080Y-4475760D03*
X-5665380Y-2926140D03*
G54D24*
G01X-5375340Y-1680410D02*
X-5786640D01*
X-5879360Y-1773130D01*
X-6507680D01*
G01X-4273930Y3253810D02*
X-4303240Y3224500D01*
X-4453280D01*
X-4890070Y2787710D01*
Y2437000D01*
X-6328380Y998690D01*
X-6500680D01*
G01X-4394660Y3504230D02*
X-4684100D01*
X-6452730Y1735600D01*
Y1481680D01*
G01X-5375340Y-1680410D02*
Y-1760740D01*
X-5363110Y-1772970D01*
Y-1822510D01*
G01X-5382140Y2407010D02*
Y2018270D01*
X-5406580Y1993830D01*
G01X-4241500Y-1279070D02*
X-4776380D01*
X-4872680Y-1375370D01*
G01X-3807990Y2236120D02*
X-3844920Y2199190D01*
X-4071700D01*
X-4259950Y2010940D01*
X-4352860D01*
G01X-3512860Y-2817530D02*
Y-3269810D01*
X-3477610Y-3305060D01*
G01X-3375210Y-3282450D02*
X-3340170Y-3247410D01*
X-3339950D01*
X-3315240Y-3222700D01*
Y-2830930D01*
G01X-3155220Y-3371410D02*
X-3190260Y-3336370D01*
X-3207620D01*
X-3281510Y-3262480D01*
Y-3182050D01*
X-3201180Y-3101720D01*
Y-2823140D01*
G01X-2211140Y-1741320D02*
X-1752040Y-1740400D01*
G01X-1823570Y-1058690D02*
X-1924330Y-957930D01*
Y-178850D01*
X-1816700Y-71220D01*
Y159000D01*
G01X-1334220Y-822800D02*
Y-699650D01*
X-1404500Y-629370D01*
Y-471330D01*
X-1427260Y-448570D01*
X-1553770D01*
G01X2039960Y-415500D02*
X1883230Y-258770D01*
Y-132700D01*
X1393700Y356830D01*
Y590050D01*
X1215680Y768070D01*
X1214140D01*
X1201440Y780770D01*
Y1024420D01*
X702360Y1523500D01*
X-699110D01*
X-721170Y1501440D01*
Y843740D01*
X-602780Y725350D01*
G01X-500150Y1255360D02*
Y1216610D01*
X-300500Y1016960D01*
Y792960D01*
G01X6344060Y-2544670D02*
X6306010Y-2506620D01*
X6105360D01*
X5802680Y-2809300D01*
X5287260D01*
X4249450Y-3847110D01*
G01X6783180Y1317260D02*
X7116090D01*
X7531760Y901590D01*
G54D15*
X-6787100Y891000D03*
Y1145000D03*
Y1399000D03*
G54D16*
Y1653000D03*
G54D17*
X-6737100Y-117000D03*
X-6583480Y-4666210D03*
X-5364710Y-3951230D03*
G54D18*
X-498500Y-1650100D03*
X541500D03*
X1940400Y4033600D03*
X2980400D03*
G54D19*
X-353500Y-2650100D03*
X2085400Y3033600D03*
X3672200Y4602800D03*
M02*
