G04 ================== begin FILE IDENTIFICATION RECORD ==================*
G04 Layout Name:  c:/cadence_2026/allegro/kit_stm32.brd*
G04 Film Name:    INT2*
G04 File Format:  Gerber RS274X*
G04 File Origin:  Cadence Allegro 25.1-S010*
G04 Origin Date:  Mon May 11 23:35:51 2026*
G04 *
G04 Layer:  ETCH/INT2*
G04 Layer:  PIN/INT2*
G04 Layer:  VIA CLASS/INT2*
G04 *
G04 Offset:    (0.0000 0.0000)*
G04 Mirror:    No*
G04 Mode:      Positive*
G04 Rotation:  0*
G04 FullContactRelief:  No*
G04 UndefLineWidth:     0.0000*
G04 ================== end FILE IDENTIFICATION RECORD ====================*
%FSLAX25Y25*MOMM*%
%IR0*IPPOS*OFA0.00000B0.00000*MIA0B0*SFA1.00000B1.00000*%
%ADD11C,.6096*%
%ADD14C,2.*%
%ADD13C,1.5001*%
%ADD12C,1.6*%
%ADD18C,1.8*%
%ADD19C,1.308*%
%ADD10C,1.65*%
%ADD16R,1.6X1.6*%
%ADD15C,1.725*%
%ADD17C,4.9949*%
%ADD20C,.15*%
%ADD21C,.127*%
G75*
%LPD*%
G75*
G36*
G01X-7889000Y2476790D02*
X-7416480D01*
Y2199520D01*
X-7889000D01*
Y2476790D01*
G37*
G36*
G01Y2735930D02*
X-7455820D01*
G02X-7446250Y2722370I-1J-10158D01*
G03X-7448740Y2707900I40713J-14455D01*
G03X-7417370Y2666350I43202J0D01*
G01X-7413680Y2665300D01*
Y2489510D01*
X-7889000D01*
Y2735930D01*
G37*
G54D10*
X-7687000Y647600D03*
Y901600D03*
Y1155600D03*
Y1409600D03*
Y1663600D03*
Y1917600D03*
X3226400Y-1483900D03*
X3480400D03*
X3734400D03*
X3988400D03*
X4242400D03*
X4496400D03*
X4750400D03*
X5004400D03*
X5258400D03*
X5512400D03*
X5766400D03*
X6020400D03*
X6274400D03*
X6528400D03*
X7612300Y-4429200D03*
Y-4175200D03*
Y-3921200D03*
Y-3667200D03*
Y-3413200D03*
Y-3159200D03*
Y-2905200D03*
Y-2651200D03*
G54D20*
G01X-5209730Y146330D02*
X-5270110Y206710D01*
X-6346150D01*
X-6406530Y146330D01*
Y-1455370D01*
X-6468160Y-1517000D01*
X-6737100D01*
G01X-5198160Y252860D02*
X-6371030D01*
X-6452710Y171180D01*
Y-1217440D01*
X-6552270Y-1317000D01*
X-6737100D01*
G01X-6694540Y-2433820D02*
Y-4363070D01*
X-6539680Y-4517930D01*
X-5854140D01*
X-5543550Y-4828520D01*
X2943450D01*
X2962100Y-4847170D01*
X3004100D01*
X3022750Y-4828520D01*
X3351110D01*
X3360700Y-4838110D01*
X3402700D01*
X3412290Y-4828520D01*
X3741530D01*
X3759300Y-4846290D01*
X3801300D01*
X3819070Y-4828520D01*
X4146850D01*
X4161500Y-4843170D01*
X4203500D01*
X4218150Y-4828520D01*
X5123720D01*
X5173330Y-4778910D01*
Y-4688850D01*
G01X4770830Y-4679660D02*
X4734990Y-4715500D01*
X3788730D01*
X3740030Y-4764200D01*
X3430150D01*
X3402700Y-4736750D01*
X3360700D01*
X3333250Y-4764200D01*
X3022490D01*
X3004100Y-4745810D01*
X2962100D01*
X2943710Y-4764200D01*
X-5206640D01*
X-6606780Y-3364060D01*
Y-2211340D01*
G01X-6384440Y3714880D02*
X-6208480Y3890840D01*
X-5924870D01*
X-5923140Y3892570D01*
X-4518350D01*
X-4338040Y3712260D01*
X-4332830D01*
X-4020000Y3399430D01*
Y3255590D01*
G01X-6207030Y-2434650D02*
Y-3672470D01*
X-5307360Y-4572140D01*
X5557470D01*
G01X-5908370Y-2163100D02*
X-5982810Y-2237540D01*
Y-2340000D01*
X-6163850Y-2521040D01*
Y-3656870D01*
X-5319340Y-4501380D01*
X5983550D01*
X5998550Y-4486380D01*
Y-4428790D01*
G01X-6060680Y3393890D02*
Y3715850D01*
X-5911660Y3864870D01*
X-4529830D01*
X-4087240Y3422280D01*
Y3310880D01*
G01X-5375340Y-1680410D02*
X-5208490D01*
X-5182800Y-1706100D01*
Y-2441370D01*
X-5250270Y-2508840D01*
Y-4064140D01*
X-5275990Y-4089860D01*
Y-4140540D01*
G01X-1026100Y-2723250D02*
Y-4022280D01*
X-1041100Y-4037280D01*
X-4666330D01*
X-4868760Y-3834850D01*
X-5117370D01*
G01X-1111370Y-2760560D02*
X-1056320Y-2815610D01*
Y-3959170D01*
X-1086490Y-3989340D01*
X-4639700D01*
X-4928010Y-3701030D01*
X-5109150D01*
G01X-4910810Y-670370D02*
X-5117830Y-877390D01*
Y-1807970D01*
X-5011630Y-1914170D01*
Y-2916570D01*
X-4890590Y-3037610D01*
Y-3237460D01*
X-4613100Y-3514950D01*
G01X1470590Y-3696330D02*
X668710Y-2894450D01*
Y-2860290D01*
X639030Y-2830610D01*
X604870D01*
X519570Y-2745310D01*
X357060D01*
X221350Y-2609600D01*
X115650D01*
X60940Y-2554890D01*
X-17940D01*
X-72650Y-2609600D01*
X-259350D01*
X-314060Y-2554890D01*
X-392940D01*
X-447650Y-2609600D01*
X-4558040D01*
X-4573040Y-2594600D01*
Y-2258970D01*
X-4794170Y-2037840D01*
X-4799550D01*
X-4829230Y-2008160D01*
Y-2002780D01*
X-4870110Y-1961900D01*
X-4877480D01*
X-4907160Y-1932220D01*
Y-1924850D01*
X-5074750Y-1757260D01*
Y-1374600D01*
X-4715180Y-1015030D01*
X-4658470D01*
X-4649920Y-1006480D01*
X-4607920D01*
X-4599370Y-1015030D01*
X-4233080D01*
G01X-386880Y302560D02*
X-433020Y256420D01*
X-1874890D01*
X-1981440Y149870D01*
X-2592290D01*
X-2642010Y100150D01*
X-3256420D01*
X-3362970Y206700D01*
X-4531390D01*
G01X-383330Y194240D02*
X-434010D01*
X-458870Y219100D01*
X-1858950D01*
X-2086240Y-8190D01*
X-3220930D01*
X-3300840Y71720D01*
Y91240D01*
X-3382520Y172920D01*
X-4321880D01*
X-4371600Y123200D01*
X-4474590D01*
G01X-3094850Y-3627120D02*
Y-2756740D01*
X-3173390Y-2678200D01*
X-4266210D01*
X-4322490Y-2734480D01*
Y-2785160D01*
G01X-4312580Y-1083710D02*
X-4131500Y-1264790D01*
Y-1293820D01*
X-4246300Y-1408620D01*
Y-2358800D01*
G01X-4221620Y-723810D02*
Y-264620D01*
X-4161600Y-204600D01*
G01X-2362870Y-286900D02*
X-2472640Y-396670D01*
X-3969530D01*
X-4161600Y-204600D01*
G01X-3893920Y853030D02*
X-3723450D01*
X-3335450Y465030D01*
X-3228920D01*
X-3130360Y563590D01*
X-2462690D01*
X-2409800Y510700D01*
X-1512310D01*
X-1120260Y902750D01*
X680350D01*
X1152700Y430400D01*
Y267070D01*
X939610Y53980D01*
X831270D01*
G01X-3806890Y782030D02*
X-3393340Y368480D01*
X-1567500D01*
X-1082920Y853060D01*
X643000D01*
X1097670Y398390D01*
Y316800D01*
X957380Y176510D01*
X861500D01*
G01X-2942120Y-3449520D02*
X-1395510D01*
X-1123800Y-3721230D01*
G01X-1139790Y-3337680D02*
X-1193080Y-3284390D01*
X-2345490D01*
X-2391660Y-3330560D01*
X-2705840D01*
G01X-1486730Y1240820D02*
X-1660530Y1067020D01*
X-2417040D01*
X-2664680Y819380D01*
Y694550D01*
G01X7612300Y-4429200D02*
X7539680Y-4501820D01*
X6289610D01*
X5837270Y-4049480D01*
X1938620D01*
X227970Y-2338830D01*
Y-1961770D01*
X148410Y-1882210D01*
Y-1816410D01*
X130210Y-1798210D01*
Y-1317700D01*
X105420Y-1292910D01*
X63410D01*
X33730Y-1263230D01*
Y-1221230D01*
X63410Y-1191550D01*
X64400D01*
X65380Y-1190570D01*
Y-310610D01*
X258600Y-117390D01*
Y53070D01*
X165380Y146290D01*
G01X7612300Y-4175200D02*
X7350580Y-4436920D01*
X6306010D01*
X5875750Y-4006660D01*
X1956330D01*
X277260Y-2327590D01*
Y-1952250D01*
X189920Y-1864910D01*
Y-1818740D01*
X157910Y-1786730D01*
Y-1158330D01*
X106890Y-1107310D01*
Y-313640D01*
X129610Y-290920D01*
X136890D01*
X286120Y-141690D01*
Y-129050D01*
X286300Y-128870D01*
Y64550D01*
X286120Y64730D01*
Y90290D01*
X247950Y128460D01*
Y179140D01*
G01X7612300Y-3921200D02*
X7509600D01*
X7476470Y-3954330D01*
X1966280D01*
X323970Y-2312020D01*
Y-1937560D01*
X241800Y-1855390D01*
Y-1831440D01*
X185610Y-1775250D01*
Y-1113390D01*
X167000Y-1094780D01*
Y-331140D01*
X253270Y-244870D01*
Y-226600D01*
X314530Y-165340D01*
Y224440D01*
X272820Y266150D01*
X192020D01*
G01X237290Y349620D02*
X352720Y234190D01*
Y-174220D01*
X288790Y-238150D01*
Y-286090D01*
X213310Y-361570D01*
Y-1763770D01*
X386240Y-1936700D01*
Y-2284340D01*
X2011270Y-3909370D01*
X7370130D01*
X7612300Y-3667200D01*
G01X301210Y-875640D02*
X247050Y-821480D01*
Y-722030D01*
X367810Y-601270D01*
Y-413870D01*
X352800Y-398860D01*
X302100D01*
G01X359810Y-278990D02*
X395650Y-314830D01*
Y-656890D01*
X305650Y-746890D01*
G01X2519780Y-2463380D02*
X2406490Y-2576670D01*
X880910D01*
X819940Y-2515700D01*
Y-1375840D01*
X783620Y-1339520D01*
X647840D01*
X425580Y-1117260D01*
Y-55250D01*
X380420Y-10090D01*
Y245670D01*
X379360Y246730D01*
Y341610D01*
X327850Y393120D01*
G01X417530Y416210D02*
Y365530D01*
X409540Y357540D01*
Y37770D01*
X458460Y-11150D01*
Y-1109490D01*
X644820Y-1295850D01*
X797600D01*
X854110Y-1352360D01*
Y-2507480D01*
X875730Y-2529100D01*
X1583600D01*
X1653220Y-2459480D01*
G01X592940Y-773490D02*
Y-985750D01*
X964660Y-1357470D01*
Y-1952040D01*
X1096400Y-2083780D01*
Y-2261800D01*
X1135560Y-2300960D01*
X1269070D01*
X1320700Y-2352590D01*
X4861510D01*
X4983430Y-2474510D01*
X7199750D01*
X7230920Y-2505680D01*
Y-3377990D01*
X7265620Y-3412690D01*
X7509090D01*
X7509600Y-3413200D01*
X7612300D01*
G01X552480Y-462780D02*
X580920Y-434340D01*
X770930D01*
X1120740Y-84530D01*
X1144810D01*
X1159810Y-69530D01*
Y85940D01*
G01X710980Y-754880D02*
X896130D01*
X929060Y-787810D01*
Y-1222170D01*
X1025190Y-1318300D01*
Y-1952050D01*
X1390130Y-2316990D01*
X5580670D01*
X5682140Y-2418460D01*
X7276420D01*
X7291420Y-2433460D01*
Y-3112710D01*
X7337910Y-3159200D01*
X7612300D01*
G01Y-2905200D02*
X7404330D01*
X7373330Y-2874200D01*
Y-2293840D01*
X7330610Y-2251120D01*
X1534320D01*
X1067910Y-1784710D01*
Y-705920D01*
X1028750Y-666760D01*
X791090D01*
G01X7612300Y-2651200D02*
Y-2237310D01*
X7562020Y-2187030D01*
X1530760D01*
X1142680Y-1798950D01*
Y-684560D01*
X1014500Y-556380D01*
X855180D01*
G01X1379730Y1613010D02*
X1232590Y1465870D01*
Y-103330D01*
X1379730Y-250470D01*
Y-542740D01*
X1207650Y-714820D01*
Y-1675230D01*
G01X6853510Y-2026810D02*
X6745190Y-2135130D01*
X1532260D01*
X1302900Y-1905770D01*
Y-875910D01*
X1358070Y-820740D01*
X1427510D01*
G01X1368760Y-1001430D02*
X1330800Y-1039390D01*
Y-1379460D01*
X1441740Y-1490400D01*
Y-1987630D01*
X1481810Y-2027700D01*
X3676770D01*
X3773790Y-1930680D01*
X6963880D01*
G01X3976730Y-321400D02*
X3837880Y-460250D01*
Y-1136720D01*
X3645620Y-1328980D01*
X1997170D01*
X1836950Y-1489200D01*
G01X2322050Y-1572860D02*
X2380800Y-1514110D01*
X2705660D01*
X2808920Y-1617370D01*
X6876650D01*
X6946080Y-1547940D01*
Y3951040D01*
X6914030Y3983090D01*
X6463650D01*
G01X2320280Y-1076190D02*
Y-772670D01*
X2349650Y-743300D01*
G01X2344750Y16840D02*
Y-112670D01*
X2393260Y-161180D01*
Y-272000D01*
X2349650Y-315610D01*
Y-743300D01*
G01X2382340Y-1859390D02*
X2418180Y-1823550D01*
X2435010D01*
X2454790Y-1843330D01*
X2496790D01*
X2508030Y-1832090D01*
X2912320D01*
X2927460Y-1816950D01*
X2969460D01*
X2984600Y-1832090D01*
X3198450D01*
X3206130Y-1839770D01*
X3248130D01*
X3255810Y-1832090D01*
X3319190D01*
X3348590Y-1861490D01*
X3390590D01*
X3419990Y-1832090D01*
X3577440D01*
X3582550Y-1826980D01*
X3624550D01*
X3629660Y-1832090D01*
X3699700D01*
X3715690Y-1848080D01*
X3757690D01*
X3773680Y-1832090D01*
X6745750D01*
X6992680Y-1585160D01*
Y4013490D01*
X6964190Y4041980D01*
X6312440D01*
X6216280Y4138140D01*
Y4316210D01*
G01X2403060Y-1014770D02*
X2453740D01*
X2461310Y-1007200D01*
X2543250D01*
X2780450Y-770000D01*
X3054600D01*
X3642060Y-182540D01*
X3992760D01*
X4688810Y513510D01*
Y780550D01*
X4756450Y848190D01*
X4815200D01*
G01X2550800Y695550D02*
Y52440D01*
X2515200Y16840D01*
X2344750D01*
G54D11*
X-7760800Y2271510D03*
X-7757900Y2537910D03*
X-7755800Y3024090D03*
X-7715320Y-4426540D03*
X-7715330Y-2966390D03*
X-7632710Y3740350D03*
X-7547580Y3179330D03*
X-7463530Y1409600D03*
X-7448680Y1917600D03*
X-7435650Y3370340D03*
X-7491310Y3754230D03*
X-7358410Y-4432590D03*
X-7380700Y2153060D03*
X-7405540Y2707900D03*
X-7303220Y-2964710D03*
X-7275720Y1662600D03*
X-7316750Y4456300D03*
X-7229320Y647600D03*
X-7224930Y900300D03*
X-7259290Y1155100D03*
X-7254300Y2154990D03*
X-7192150Y4297520D03*
X-7116800Y-918410D03*
X-7119880Y2348880D03*
X-7169540Y3738250D03*
X-7089860Y-2138900D03*
X-7065880Y-1660090D03*
X-7095820Y-196100D03*
X-7073060Y4458510D03*
X-6992880Y-1796750D03*
X-7020510Y1145000D03*
X-6921980Y-448370D03*
X-6956350Y3102670D03*
X-6914770Y3252900D03*
X-6920430Y3627640D03*
X-6940730Y4296410D03*
X-6867500Y2585640D03*
X-6855820Y4464020D03*
X-6794690Y3457130D03*
X-6757900Y3753570D03*
X-6694540Y-2433820D03*
X-6730610Y-2084380D03*
X-6728700Y2596920D03*
X-6606780Y-2211340D03*
X-6587440Y1653000D03*
X-6565500Y3741240D03*
X-6507680Y-1773130D03*
X-6507900Y-317000D03*
X-6500680Y998690D03*
X-6452730Y1481680D03*
X-6384440Y3714880D03*
X-6349200Y-2450300D03*
X-6238800Y3663210D03*
X-6207030Y-2434650D03*
X-6192330Y-2131390D03*
X-6193240Y-2011010D03*
X-6139290Y3505110D03*
X-6112760Y2642420D03*
X-6060680Y3393890D03*
X-6011290Y-2171820D03*
X-6010090Y2416520D03*
X-6041160Y2974030D03*
X-6042990Y3065930D03*
X-6034900Y4138210D03*
Y4791560D03*
X-5908370Y-2163100D03*
X-5919510Y-1949850D03*
X-5742800Y483200D03*
X-5704220Y4645600D03*
X-5663400Y-4794810D03*
X-5623540Y-117000D03*
X-5622400Y2363120D03*
X-5679660Y4375600D03*
X-5535870Y-2339400D03*
X-5574400Y-1517000D03*
X-5485100Y-2173670D03*
X-5511700Y465190D03*
X-5522350Y2405840D03*
X-5474470Y3226710D03*
X-5406580Y1993830D03*
X-5382140Y2407010D03*
X-5440450Y2914980D03*
X-5411960Y3623500D03*
X-5363110Y-1822510D03*
X-5375340Y-1680410D03*
X-5275990Y-4140540D03*
X-5246740Y-2393300D03*
X-5300030Y-2198460D03*
X-5266560Y485460D03*
X-5277290Y2653780D03*
X-5248550Y2856090D03*
X-5177440Y-4281130D03*
X-5180560Y-773170D03*
X-5209730Y146330D03*
X-5198160Y252860D03*
X-5164000Y2423510D03*
X-5192820Y3354190D03*
X-5117370Y-3834850D03*
X-5109150Y-3701030D03*
X-5115560Y-3291110D03*
X-5122370Y-3093400D03*
X-5115560Y-2887160D03*
X-5078450Y-2574260D03*
X-5099220Y-2040730D03*
X-5103150Y3461630D03*
X-5024050Y-3562030D03*
X-5004770Y-3211000D03*
X-5023520Y-2994540D03*
X-4952790Y-885350D03*
X-4947130Y2617440D03*
X-4966800Y3498470D03*
X-4905100Y-2916510D03*
X-4903080Y-2410620D03*
Y-2288680D03*
X-4856480Y-1911220D03*
X-4854680Y-1812300D03*
Y-1710750D03*
X-4872680Y-1375370D03*
X-4910810Y-670370D03*
X-4814800Y-2640820D03*
X-4803850Y-2240080D03*
X-4778550Y-1987160D03*
X-4780860Y-1494100D03*
X-4777340Y337910D03*
X-4811740Y2591810D03*
X-4700440Y-2872720D03*
X-4741800Y3051300D03*
X-4761330Y3808760D03*
X-4670080Y-3661330D03*
X-4628920Y-1057160D03*
X-4655040Y-308710D03*
X-4694860Y187080D03*
X-4647380Y1486150D03*
X-4659200Y2361600D03*
X-4666800Y2582620D03*
X-4651230Y3801660D03*
X-4613100Y-3514950D03*
X-4490400Y-3321850D03*
X-4474590Y123200D03*
X-4531390Y206700D03*
X-4516800Y2581730D03*
X-4474180Y3560780D03*
X-4459390Y-2959400D03*
X-4461140Y-2672660D03*
X-4419300Y537200D03*
X-4375340Y-3772010D03*
X-4348510Y-370440D03*
X-4352860Y2010940D03*
X-4393620Y2571840D03*
X-4394660Y3504230D03*
X-4322490Y-2785160D03*
X-4315990Y-2508800D03*
X-4314190Y-2107360D03*
X-4311490Y-1970660D03*
X-4315990Y-1829460D03*
X-4316880Y-1691410D03*
X-4316800Y-1549400D03*
X-4312580Y-1083710D03*
X-4262400Y-120600D03*
X-4319300Y72080D03*
X-4298000Y521640D03*
X-4254680Y2548450D03*
X-4251730Y3091400D03*
X-4273930Y3253810D03*
X-4267790Y3489170D03*
X-4246300Y-2358800D03*
X-4241500Y-1279070D03*
X-4233080Y-1015030D03*
X-4221620Y-723810D03*
X-4225530Y2830980D03*
X-4187810Y3410950D03*
X-4225100Y4062090D03*
X-4105460Y-4110510D03*
X-4116400Y-3284920D03*
X-4161500Y-2746480D03*
X-4161600Y-204600D03*
X-4143150Y3610630D03*
X-4093370Y-78320D03*
X-4044390Y2705830D03*
X-4087240Y3310880D03*
X-4046130Y3519800D03*
X-3966490Y2964200D03*
X-4020000Y3255590D03*
X-3881250Y-3755180D03*
X-3916620Y-3504860D03*
X-3893920Y853030D03*
X-3934770Y1771080D03*
X-3872620Y2990010D03*
X-3806880Y-1983170D03*
X-3814900Y78700D03*
X-3806890Y782030D03*
X-3807990Y2236120D03*
X-3735870Y-3758470D03*
X-3737310Y-2739400D03*
X-3789830Y-1404030D03*
X-3745060Y-190600D03*
X-3660700Y-3404520D03*
X-3662090Y-2082100D03*
X-3651330Y-1511950D03*
X-3658530Y-1278130D03*
X-3656900Y1118770D03*
X-3647730Y2864180D03*
X-3639550Y-285730D03*
X-3573830Y-181950D03*
X-3582660Y2118600D03*
X-3551510Y-4440160D03*
X-3522900Y-3570820D03*
X-3559590Y-3474290D03*
X-3512860Y-2817530D03*
X-3503810Y-1981370D03*
X-3521830Y-1396840D03*
X-3556960Y7850D03*
X-3551720Y1893100D03*
X-3433690Y-4397000D03*
X-3477610Y-3305060D03*
X-3463130Y-301300D03*
X-3465900Y1168300D03*
X-3375210Y-3282450D03*
X-3415700Y-1761970D03*
X-3351770Y691690D03*
X-3407550Y812500D03*
X-3390520Y3306650D03*
X-3383390Y3443280D03*
X-3296130Y-3765710D03*
X-3317960Y-3635090D03*
X-3315240Y-2830930D03*
X-3268210Y-1891470D03*
X-3282510Y595750D03*
X-3338420Y2723840D03*
X-3201180Y-2823140D03*
X-3261030Y-1657640D03*
X-3249950Y189130D03*
X-3237870Y920930D03*
X-3155220Y-3371410D03*
X-3182020Y317800D03*
X-3059570Y-4652410D03*
X-3094850Y-3627120D03*
X-3106340Y-1758370D03*
X-3105090Y-284000D03*
X-3115690Y46100D03*
X-3071000Y474360D03*
X-3108300Y796870D03*
X-3030200Y-4329530D03*
X-3033870Y-4193530D03*
X-2985820Y-1997590D03*
X-2996620Y-1375250D03*
X-2942120Y-3449520D03*
X-2961500Y-3108220D03*
X-2941560Y4169250D03*
X-2868130Y-3580730D03*
X-2874310Y-2076730D03*
X-2876110Y-1502960D03*
X-2877910Y-1256540D03*
X-2858400Y1578700D03*
X-2873780Y2654540D03*
X-2802750Y-2800520D03*
X-2757390Y-1990400D03*
X-2744800Y-1366260D03*
X-2689970Y-3611000D03*
X-2705840Y-3330560D03*
X-2664680Y694550D03*
X-2660310Y-3765710D03*
X-2661500Y-743910D03*
X-2649140Y1629020D03*
X-2534660Y82750D03*
X-2540820Y1721350D03*
X-2517180Y3553690D03*
X-2461290Y-204280D03*
X-2465670Y2046620D03*
X-2491410Y2957850D03*
X-2495850Y3673390D03*
X-2494800Y4596530D03*
X-2401270Y-3875390D03*
X-2362190Y-3115460D03*
X-2362870Y-286900D03*
X-2381070Y434340D03*
X-2432500Y1611260D03*
X-2419440Y2183430D03*
X-2294570Y-4341940D03*
X-2292280Y-4197670D03*
X-2344900Y-3580740D03*
X-2334840Y1756870D03*
X-2271390Y-3342040D03*
X-2268160Y-2359120D03*
X-2211140Y-1741320D03*
X-2265580Y1630790D03*
X-2206880Y-2098790D03*
X-2192690Y4341120D03*
Y4485110D03*
X-2061500Y-803250D03*
X-2067240Y580100D03*
X-2091560Y1637900D03*
X-2072040Y3026520D03*
X-2087180Y4420680D03*
X-2048260Y-2958060D03*
X-2050730Y2886230D03*
X-1988580Y4494190D03*
X-1938610Y1962570D03*
X-1956610Y2960810D03*
X-1934860Y3566980D03*
X-1881510Y-2128600D03*
X-1902150Y-18160D03*
X-1903750Y4030410D03*
X-1801230Y-2954120D03*
X-1781120Y-1459400D03*
X-1760940Y-1207980D03*
X-1823570Y-1058690D03*
X-1761000Y-507460D03*
X-1799630Y-209550D03*
X-1816700Y159000D03*
X-1771320Y3667950D03*
X-1752040Y-1740400D03*
X-1699780Y-1559400D03*
X-1731490Y-1008450D03*
X-1714250Y800100D03*
X-1653020Y-4681190D03*
X-1621150Y-1191960D03*
X-1615910Y-1074350D03*
X-1673770Y-420220D03*
X-1604900Y-4360790D03*
X-1603980Y-4223860D03*
X-1561880Y-1813390D03*
X-1582050Y-1533520D03*
X-1553770Y-448570D03*
X-1516320Y-2418480D03*
X-1517810Y-676600D03*
X-1486730Y1240820D03*
X-1413870Y-748480D03*
X-1420890Y4063130D03*
X-1362160Y-1144190D03*
X-1334220Y-822800D03*
X-1314930Y-570870D03*
X-1328230Y1120240D03*
X-1123800Y-3721230D03*
X-1139790Y-3337680D03*
X-1111370Y-2760560D03*
X-1149360Y-1162980D03*
X-1084610Y-1038880D03*
X-1138810Y-415500D03*
X-1138980Y-114290D03*
Y477530D03*
X-1026100Y-2723250D03*
X-1037870Y-1263740D03*
X-1016310Y-411840D03*
X-1071390Y-236000D03*
X-1026100Y1059050D03*
X-1002060Y-1142600D03*
X-937390Y-131790D03*
X-899270Y-430090D03*
X-902050Y132910D03*
X-907090Y631600D03*
X-782300Y-457560D03*
X-806370Y-127890D03*
X-788710Y598230D03*
X-742380Y160810D03*
X-708260Y698780D03*
X-602780Y725350D03*
X-570190Y1434290D03*
X-534220Y1058370D03*
X-500150Y1255360D03*
X-544540Y4463530D03*
X-471110Y-4681700D03*
X-464110Y-864430D03*
X-449730Y-763720D03*
X-437820Y-70170D03*
X-327230Y-1347090D03*
X-378640Y-931860D03*
X-383330Y194240D03*
X-386880Y302560D03*
X-327230Y439290D03*
X-376230Y748640D03*
X-269920Y-981400D03*
X-269280Y371810D03*
X-300500Y792960D03*
X-274770Y1693700D03*
X-214820Y299010D03*
X-135830Y-2896750D03*
X-100660Y-2072460D03*
X-163140Y-1824760D03*
X-156010Y254610D03*
X-24880Y-1454980D03*
X-96820Y210760D03*
X-13920Y-3815310D03*
X15220Y-1899510D03*
X-15910Y-1570860D03*
X49820Y-1356390D03*
X23010Y134750D03*
X-15740Y277700D03*
X84410Y-1242230D03*
X91670Y241300D03*
X151010Y-1979940D03*
X165380Y146290D03*
X192020Y266150D03*
X247950Y179140D03*
X237290Y349620D03*
X316360Y-3859700D03*
X301210Y-875640D03*
X305650Y-746890D03*
X302100Y-398860D03*
X327850Y393120D03*
X359810Y-278990D03*
X417530Y416210D03*
X405230Y1689260D03*
X520290Y-1079650D03*
Y-929170D03*
X552480Y-462780D03*
X618030Y-2881290D03*
X592940Y-773490D03*
X710980Y-754880D03*
X718550Y175000D03*
X709530Y573800D03*
X791090Y-666760D03*
X770750Y435520D03*
X861030Y-1131530D03*
X855180Y-556380D03*
X831270Y53980D03*
X861500Y176510D03*
X854790Y1208460D03*
X929060Y-465590D03*
X933510Y282980D03*
X996530Y-2271110D03*
X983150Y-1148190D03*
X980690Y-125000D03*
X970010Y-10550D03*
X1090220Y-2862060D03*
X1092910Y23580D03*
X1166560Y-2207100D03*
X1159810Y85940D03*
X1196610Y-2760860D03*
X1207650Y-1675230D03*
X1237120Y-389470D03*
X1309190Y-2126660D03*
X1317230Y-745540D03*
X1324920Y43300D03*
X1390510Y-1842900D03*
X1372420Y-1518220D03*
X1393990Y-1279770D03*
X1368760Y-1001430D03*
X1400580Y-152200D03*
X1396800Y145830D03*
X1410210Y1405700D03*
X1379730Y1613010D03*
X1470590Y-3696330D03*
X1447090Y-935560D03*
X1427510Y-820740D03*
X1411580Y776280D03*
X1544670Y-1962890D03*
X1584840Y-476090D03*
X1653220Y-2459480D03*
X1710560Y1001290D03*
X1713990Y-1134410D03*
X1742110Y-904590D03*
X1781210Y-742360D03*
X1836950Y-1489200D03*
X1846740Y428060D03*
X1898730Y-4330200D03*
X1877230Y-1279320D03*
X1885020Y-936490D03*
X1876660Y-565860D03*
X1895410Y-463480D03*
X1907480Y22160D03*
X1883430Y146680D03*
X1909200Y900240D03*
X1955780Y-1962890D03*
X1980120Y-1750750D03*
X1972780Y-1647670D03*
X2006070Y-1252860D03*
X2001620Y-992530D03*
X1978580Y187590D03*
X1999290Y502260D03*
X2050420Y-2712800D03*
X2015580Y-1422980D03*
X2050610Y-527450D03*
X2039960Y-415500D03*
X2022140Y-219890D03*
X2054400Y903920D03*
X2097750Y185060D03*
X2307840Y-4330200D03*
X2287360Y-4202440D03*
X2253500Y-3173180D03*
X2283890Y2535390D03*
Y2789800D03*
X2382340Y-1859390D03*
X2322050Y-1572860D03*
X2320280Y-1076190D03*
X2349650Y-743300D03*
X2327380Y-219600D03*
X2344750Y16840D03*
X2375350Y390570D03*
X2336430Y508180D03*
X2403060Y-1014770D03*
X2445400Y-414600D03*
X2466460Y486560D03*
X2519780Y-2463380D03*
X2475790Y-1792650D03*
X2507390Y-1575640D03*
X2528270Y-865390D03*
X2523250Y-765650D03*
X2520640Y-654140D03*
X2541320Y-141430D03*
X2604210Y-1111800D03*
X2588970Y-28010D03*
X2550800Y695550D03*
X2656000Y-1575180D03*
X2779230Y-1408280D03*
X2787880Y-875550D03*
Y290250D03*
X2782230Y782320D03*
X2889920Y-1513790D03*
X2853600Y-28010D03*
X2983100Y-4796490D03*
X2983660Y-2714200D03*
X2948460Y-1867630D03*
X2969490Y-1742100D03*
X2970920Y-892840D03*
X2943540Y-194060D03*
X3062890Y-242490D03*
X3053020Y2795710D03*
X3079920Y-1947940D03*
X3125170Y-937800D03*
X3179000Y-3172760D03*
X3152020Y-2084450D03*
X3227130Y-1789090D03*
X3358470Y-1947940D03*
X3369590Y-1810810D03*
X3381700Y-4787430D03*
X3417470Y-882460D03*
X3426110Y-315130D03*
X3480590Y-143030D03*
X3570850Y-883930D03*
X3616380Y-2677850D03*
X3603550Y-1877660D03*
X3601680Y-1163540D03*
X3672200Y4365430D03*
X3736690Y-1797400D03*
X3780300Y-4795610D03*
X3819360Y-3064980D03*
X3887680Y971580D03*
X3930450Y-802040D03*
X3989040Y-1695220D03*
X3976730Y-321400D03*
X4182500Y-4792490D03*
X4138180Y-1284620D03*
X4143060Y-1164400D03*
X4249450Y-3847110D03*
X4294140Y-3407500D03*
X4498170Y-3014760D03*
X4576220Y-4774380D03*
X4569430Y-1712700D03*
X4708450Y-3786790D03*
X4688200Y4387990D03*
X4770830Y-4679660D03*
X4801200Y-273620D03*
X4737210Y1221240D03*
X4809860Y-2003280D03*
X4815200Y848190D03*
X4955150Y-929170D03*
X4993210Y-4769650D03*
X5012440Y-3775490D03*
X5023130Y-2397200D03*
X5173330Y-4688850D03*
X5389950Y-4765920D03*
X5371570Y982250D03*
X5361610Y1255400D03*
X5557470Y-4572140D03*
X5510240Y1222700D03*
X5690150Y-3710630D03*
X5702400Y-2326770D03*
X5692830Y-862570D03*
X5784770Y-4749570D03*
X5766400Y-1256070D03*
X5998550Y-4428790D03*
X5975330Y-2341960D03*
X6018880Y-1270770D03*
X6016050Y983900D03*
X6125410Y-3061420D03*
X6216280Y4316210D03*
X6274400Y-1246170D03*
X6351700Y-2680300D03*
X6344060Y-2544670D03*
X6438440Y983900D03*
X6463650Y3983090D03*
X6528400Y-1262230D03*
X6571020Y-3803850D03*
X6801690Y-3025390D03*
X6783180Y1317260D03*
X6853510Y-2026810D03*
X6963880Y-1930680D03*
X7005380Y-2656470D03*
X7068540Y-3805050D03*
X7125000Y1453000D03*
X7165930Y-1827520D03*
X7165260Y-1355900D03*
X7179210Y138700D03*
X7482200Y4371170D03*
X7531760Y901590D03*
G54D21*
G01X-378640Y-931860D02*
X-4444630D01*
X-4446690Y-929800D01*
X-4472650D01*
X-5088430Y-314020D01*
Y2464920D01*
X-5277290Y2653780D01*
G01X-269920Y-981400D02*
X-1688490D01*
X-1710970Y-958920D01*
X-1752010D01*
X-1774490Y-981400D01*
X-4196660D01*
X-4212560Y-965500D01*
X-4253600D01*
X-4269500Y-981400D01*
X-4469780D01*
X-5138430Y-312750D01*
Y2397940D01*
X-5164000Y2423510D01*
G01X-464110Y-864430D02*
X-499150Y-899470D01*
X-4441090D01*
X-4777340Y-563220D01*
Y337910D01*
G01X-449730Y-763720D02*
X-558100Y-872090D01*
X-1313460D01*
X-1313700Y-872330D01*
X-1354740D01*
X-1354980Y-872090D01*
X-1882790D01*
X-2033440Y-721440D01*
X-2121570D01*
X-2205210Y-805080D01*
X-4473290D01*
X-4736800Y-541570D01*
Y-57720D01*
X-4694860Y-15780D01*
Y187080D01*
G01X1447090Y-935560D02*
X1600730D01*
X1852630Y-1187460D01*
X2548900D01*
X2556340Y-1194900D01*
X2597380D01*
X2604820Y-1187460D01*
X3343880D01*
X3570850Y-960490D01*
Y-883930D01*
G01X6783180Y1317260D02*
X3431100D01*
X3115130Y1001290D01*
X1710560D01*
G01X1978580Y187590D02*
Y94180D01*
X2029210Y43550D01*
Y-17870D01*
X1889460Y-157620D01*
Y-407990D01*
X1895410Y-413940D01*
Y-463480D01*
G01D02*
X2001620Y-569690D01*
Y-992530D01*
G01X2054400Y903920D02*
Y775280D01*
X1941360Y662240D01*
Y224810D01*
X1978580Y187590D01*
G01X3930450Y-802040D02*
X4108470Y-980060D01*
X4731530D01*
X4849020Y-862570D01*
X5692830D01*
G54D12*
X-7605170Y-4026030D03*
X-7604740Y-3375870D03*
X-7154860Y-4025840D03*
X-7154990Y-3376170D03*
X-6737100Y-1517000D03*
Y-1317000D03*
Y-1117000D03*
Y-917000D03*
Y-717000D03*
Y-517000D03*
Y-317000D03*
X-6329950Y-4665920D03*
X-6075810Y-4666230D03*
X-5365000Y-3701030D03*
X-5365010Y-3450850D03*
X-5377100Y-1517000D03*
Y-1317000D03*
Y-1117000D03*
Y-917000D03*
Y-717000D03*
Y-517000D03*
Y-317000D03*
Y-117000D03*
G54D13*
X-7477100Y-696100D03*
Y-446100D03*
Y-196100D03*
X-7470300Y-2138900D03*
Y-1888900D03*
Y-1638900D03*
X-353500Y-2650100D03*
X21500D03*
X396500D03*
X1881200Y-2962800D03*
Y-2712800D03*
Y-2462800D03*
X2085400Y3033600D03*
X2460400D03*
X2805600Y-2964200D03*
Y-2714200D03*
Y-2464200D03*
X2835400Y3033600D03*
X3672200Y4602800D03*
X3926200D03*
X4180200D03*
X4434200D03*
X4688200D03*
X4942200D03*
X5196200D03*
X5450200D03*
X5704200D03*
X5958200D03*
X6212200D03*
X6466200D03*
X6720200D03*
X6974200D03*
X7228200D03*
X7535000Y-1605900D03*
Y-1355900D03*
Y-1105900D03*
X7531900Y-111300D03*
Y138700D03*
Y388700D03*
X7482200Y4602800D03*
G54D14*
X-6995220Y-4476080D03*
X-6995250Y-2926240D03*
X-5665080Y-4475760D03*
X-5665380Y-2926140D03*
G54D15*
X-6787100Y891000D03*
Y1145000D03*
Y1399000D03*
Y1653000D03*
G54D16*
X-6737100Y-117000D03*
X-6583480Y-4666210D03*
X-5364710Y-3951230D03*
G54D17*
X-498500Y-1650100D03*
X541500D03*
X1940400Y4033600D03*
X2980400D03*
G54D18*
X-352330Y4463530D03*
X-98690D03*
X154940D03*
X409510D03*
G54D19*
X3660200Y-545600D03*
Y480400D03*
X4167200Y-545600D03*
X4168200Y480400D03*
X4421200Y-545600D03*
X4422200Y480400D03*
X4675200Y-544600D03*
X4929200Y480400D03*
X5184200D03*
X5438200Y-545600D03*
Y480400D03*
X5692200D03*
X5945200D03*
X6200200D03*
M02*
